<?xml version="1.0" standalone="no"?>
<!DOCTYPE svg PUBLIC "-//W3C//DTD SVG 20010904//EN"
 "http://www.w3.org/TR/2001/REC-SVG-20010904/DTD/svg10.dtd">
<svg version="1.0" xmlns="http://www.w3.org/2000/svg"
 width="956.000000pt" height="956.000000pt" viewBox="0 0 956.000000 956.000000"
 preserveAspectRatio="xMidYMid meet">
<metadata>
Created by potrace 1.11, written by Peter Selinger 2001-2013
</metadata>
<g transform="translate(0.000000,956.000000) scale(0.100000,-0.100000)"
fill="#000000" stroke="none">
<path d="M8096 9322 c-2 -1 -41 -5 -87 -8 -46 -2 -102 -6 -124 -9 -22 -2 -65
-7 -95 -10 -30 -3 -93 -13 -140 -21 -47 -9 -95 -18 -107 -20 -53 -9 -72 -13
-143 -29 -41 -10 -79 -20 -85 -23 -5 -4 -14 -7 -20 -7 -18 -1 -120 -28 -136
-36 -9 -4 -27 -10 -40 -13 -50 -10 -254 -87 -379 -144 -36 -16 -68 -30 -72
-31 -4 -1 -35 -17 -69 -36 -33 -19 -63 -35 -66 -35 -9 0 -227 -132 -293 -178
-36 -25 -78 -55 -95 -66 -16 -12 -32 -23 -35 -26 -3 -3 -18 -16 -35 -29 -85
-64 -246 -219 -319 -305 -22 -27 -54 -63 -69 -80 -57 -64 -217 -316 -283 -446
-69 -135 -126 -256 -130 -275 -2 -9 -44 -121 -64 -170 -10 -25 -70 -209 -80
-250 -38 -144 -80 -305 -84 -325 -3 -14 -8 -36 -11 -50 -7 -28 -10 -44 -25
-115 -30 -144 -49 -244 -56 -290 -3 -22 -7 -51 -10 -65 -9 -54 -17 -116 -18
-132 0 -10 -3 -18 -6 -18 -3 0 -5 -10 -6 -22 0 -31 -14 -160 -19 -188 -2 -12
-7 -54 -11 -94 -3 -39 -8 -84 -10 -101 -2 -16 -6 -59 -9 -95 -3 -36 -7 -83 -9
-105 -11 -103 -18 -192 -18 -207 0 -10 -9 -23 -20 -29 -16 -8 -19 -8 -13 1 6
9 3 9 -12 2 -11 -7 -25 -7 -35 -1 -10 6 -19 6 -22 0 -4 -5 -18 -6 -34 -2 -15
5 -37 4 -50 0 -13 -5 -22 -4 -22 1 0 6 -9 6 -25 0 -16 -6 -25 -6 -25 0 0 6 -9
6 -25 0 -14 -5 -27 -5 -30 0 -3 5 -18 5 -33 0 -16 -4 -36 -4 -45 2 -11 6 -17
5 -17 -1 0 -7 -8 -7 -23 -2 -13 5 -30 5 -37 1 -8 -5 -19 -5 -25 0 -6 5 -17 5
-25 0 -8 -5 -21 -5 -31 1 -11 6 -20 5 -24 -1 -4 -6 -13 -7 -24 -1 -10 6 -23 6
-31 1 -8 -5 -21 -5 -31 1 -11 6 -20 5 -24 -1 -4 -7 -13 -7 -26 0 -12 7 -19 7
-19 1 0 -7 -8 -7 -23 -2 -13 5 -30 5 -37 1 -8 -5 -19 -5 -25 0 -6 5 -17 5 -25
0 -8 -5 -21 -5 -31 1 -11 6 -20 5 -24 -1 -4 -6 -13 -7 -23 -1 -10 5 -24 6 -33
1 -8 -5 -21 -5 -29 0 -7 4 -24 4 -37 -1 -16 -6 -22 -5 -18 1 4 7 -3 7 -19 0
-17 -6 -26 -6 -26 1 0 6 -7 6 -19 -1 -14 -7 -22 -7 -26 0 -4 6 -12 7 -18 3
-16 -10 -38 -10 -59 -1 -9 5 -19 4 -23 -2 -4 -6 -15 -6 -30 0 -14 5 -25 6 -25
2 0 -4 -18 -7 -40 -7 -22 0 -40 3 -40 7 0 4 -11 3 -25 -2 -16 -6 -25 -6 -25 1
0 6 -6 6 -19 0 -10 -6 -21 -8 -23 -5 -10 9 -48 13 -48 4 0 -6 -10 -6 -25 0
-16 6 -25 6 -25 0 0 -6 -9 -6 -22 -1 -13 5 -32 5 -43 1 -11 -4 -29 -4 -40 0
-11 4 -30 4 -42 -1 -14 -5 -23 -5 -23 2 0 6 -7 6 -19 -1 -14 -7 -22 -7 -26 0
-4 6 -12 7 -18 3 -16 -10 -38 -10 -59 -1 -9 5 -19 4 -23 -2 -4 -6 -15 -6 -30
0 -14 5 -25 6 -25 2 0 -4 -18 -7 -40 -7 -22 0 -40 3 -40 7 0 4 -11 3 -25 -2
-16 -6 -25 -6 -25 1 0 6 -6 6 -19 0 -10 -6 -21 -8 -23 -5 -10 9 -48 13 -48 4
0 -6 -10 -6 -25 0 -16 6 -25 6 -25 0 0 -6 -9 -6 -24 0 -13 5 -26 7 -28 5 -10
-10 -54 -12 -70 -3 -12 5 -18 5 -18 -1 0 -7 -8 -7 -23 -2 -13 5 -30 5 -37 1
-8 -5 -19 -5 -25 0 -6 5 -17 5 -25 0 -8 -5 -21 -5 -31 1 -11 6 -20 5 -24 -1
-4 -6 -13 -7 -24 -1 -10 6 -23 6 -31 1 -8 -5 -21 -5 -31 1 -11 6 -20 5 -24 -1
-4 -7 -13 -7 -26 0 -12 7 -19 7 -19 1 0 -7 -8 -7 -23 -2 -13 5 -30 5 -37 1 -8
-5 -19 -5 -25 0 -6 5 -17 5 -25 0 -8 -5 -21 -5 -31 1 -11 6 -20 5 -24 -1 -4
-6 -13 -7 -24 -1 -10 6 -23 6 -31 1 -8 -5 -21 -5 -30 0 -9 5 -22 5 -30 0 -8
-5 -21 -5 -31 1 -11 6 -20 5 -24 -1 -3 -5 -12 -7 -19 -4 -22 8 -96 10 -96 2 0
-4 -10 -4 -22 1 -13 4 -35 5 -50 0 -17 -5 -28 -4 -28 2 0 6 -5 7 -10 4 -6 -4
-90 -8 -188 -10 -166 -4 -232 -8 -292 -19 -14 -3 -42 -7 -63 -10 -21 -4 -48
-11 -59 -17 -11 -6 -26 -8 -34 -5 -8 3 -14 1 -14 -4 0 -6 -11 -10 -24 -10 -14
0 -28 -5 -31 -10 -4 -6 -11 -8 -16 -5 -5 4 -9 2 -9 -3 0 -5 -6 -9 -13 -9 -13
0 -168 -73 -177 -83 -3 -3 -23 -17 -45 -30 -56 -33 -185 -140 -242 -201 -65
-70 -183 -227 -183 -244 0 -8 -4 -15 -9 -15 -5 0 -17 -18 -27 -40 -10 -22 -22
-40 -28 -40 -5 0 -7 -3 -3 -6 3 -3 -8 -32 -24 -64 -16 -31 -29 -60 -29 -63 0
-3 -5 -18 -12 -34 -6 -15 -12 -34 -14 -41 -1 -8 -6 -21 -10 -30 -8 -20 -7 -14
-24 -72 -7 -25 -14 -54 -16 -65 -2 -11 -8 -41 -13 -66 -25 -117 -35 -411 -18
-499 4 -19 10 -57 13 -85 3 -27 8 -53 11 -58 2 -4 7 -20 9 -35 6 -29 45 -148
65 -197 7 -16 13 -32 13 -35 5 -25 98 -194 126 -227 5 -7 10 -15 10 -19 0 -4
16 -26 35 -50 19 -23 35 -45 35 -48 0 -3 8 -14 18 -24 164 -173 215 -222 230
-222 6 0 12 -3 14 -7 5 -13 86 -73 97 -73 6 0 11 -4 11 -8 0 -22 328 -173 410
-188 14 -3 39 -9 56 -15 42 -13 73 -19 179 -35 28 -4 129 -8 225 -8 158 -1
175 -3 178 -18 2 -10 8 -18 13 -18 5 0 9 -4 9 -10 0 -5 17 -35 38 -66 20 -31
42 -64 47 -72 6 -9 15 -21 20 -27 6 -6 24 -29 40 -51 37 -48 241 -252 280
-279 16 -11 33 -25 39 -31 47 -46 407 -264 436 -264 3 0 24 -9 46 -19 21 -11
42 -17 46 -14 5 2 8 0 8 -5 0 -5 10 -12 23 -15 12 -3 45 -14 74 -25 28 -11 54
-17 57 -14 3 3 6 0 6 -6 0 -7 11 -12 24 -12 14 0 27 -4 30 -9 4 -5 14 -8 24
-6 9 1 24 -1 33 -6 16 -8 177 -47 229 -55 90 -14 181 -25 239 -28 26 -1 52 -5
57 -7 8 -4 319 -3 319 1 0 1 20 3 45 5 76 6 154 15 176 19 66 13 101 18 117
18 23 -1 47 -20 47 -37 0 -8 4 -15 8 -17 4 -1 23 -24 42 -50 18 -27 37 -48 42
-48 4 0 8 -5 8 -10 0 -13 49 -69 145 -165 310 -309 672 -504 1115 -601 34 -8
130 -22 200 -30 119 -14 454 -8 545 10 11 2 41 7 67 10 26 4 82 16 125 27 43
11 89 22 102 25 13 3 34 10 45 16 12 6 21 10 21 8 0 -6 109 32 148 52 20 10
37 16 37 12 0 -4 7 -1 15 6 8 7 15 9 15 4 0 -5 7 0 15 10 8 11 15 16 15 12 0
-11 220 106 248 131 7 7 17 13 21 13 4 0 17 9 29 20 12 12 22 18 22 15 0 -7
131 94 205 158 88 77 198 192 260 271 17 21 35 44 41 50 31 33 162 245 207
336 69 138 137 312 154 390 3 14 6 30 7 35 1 6 5 19 9 30 3 11 8 31 11 45 3
14 8 36 11 50 13 58 29 177 30 223 0 15 2 27 5 28 8 1 44 10 55 13 6 1 31 6
58 11 26 4 50 11 53 16 3 5 9 7 14 4 14 -9 194 62 300 117 176 92 348 230 469
378 11 14 25 31 31 38 64 74 211 342 222 402 2 8 6 17 9 20 7 6 48 151 55 195
3 17 8 41 10 55 19 91 32 309 20 328 -3 6 -2 13 4 17 6 4 7 12 3 18 -4 7 -8
24 -9 40 -1 15 -2 28 -4 30 -1 1 -3 18 -5 37 -5 55 -14 106 -31 172 -3 13 -7
30 -9 38 -2 8 -4 16 -5 18 -2 1 -3 5 -4 10 -4 16 -28 88 -37 110 -5 12 -13 32
-18 45 -8 18 -41 86 -105 214 -6 13 -14 23 -18 23 -5 0 -8 7 -8 15 0 8 -4 15
-10 15 -5 0 -10 5 -10 10 0 10 -31 58 -55 86 -135 157 -207 226 -319 304 -64
45 -203 120 -222 120 -7 0 -14 3 -16 8 -4 8 -120 49 -160 56 -15 3 -32 7 -37
10 -4 3 -28 8 -52 11 -24 3 -64 8 -89 11 -25 4 -118 7 -207 8 -90 1 -163 5
-163 9 0 4 -8 4 -17 -1 -10 -5 -27 -6 -38 -2 -11 4 -32 4 -46 0 -15 -4 -32 -4
-40 1 -7 4 -18 4 -24 -1 -6 -5 -17 -5 -25 0 -8 5 -21 5 -30 0 -9 -5 -22 -5
-30 0 -7 4 -24 4 -37 -1 -16 -6 -22 -5 -18 1 4 7 -3 7 -19 0 -17 -6 -26 -6
-26 1 0 6 -7 6 -19 -1 -14 -7 -22 -7 -26 0 -4 6 -12 7 -18 3 -16 -10 -38 -10
-59 -1 -9 5 -19 4 -23 -2 -4 -6 -15 -6 -30 0 -14 5 -25 6 -25 2 0 -4 -18 -7
-40 -7 -22 0 -40 3 -40 7 0 4 -11 3 -25 -2 -16 -6 -25 -6 -25 1 0 6 -6 6 -19
0 -10 -6 -21 -8 -23 -5 -10 9 -48 13 -48 4 0 -6 -10 -6 -25 0 -16 6 -25 6 -25
0 0 -6 -9 -6 -22 -1 -13 5 -32 5 -43 1 -11 -4 -29 -4 -40 0 -11 4 -30 4 -42
-1 -14 -5 -23 -5 -23 2 0 6 -7 6 -19 -1 -14 -7 -22 -7 -26 0 -4 6 -12 7 -18 3
-16 -10 -38 -10 -59 -1 -9 5 -19 4 -23 -2 -4 -6 -15 -6 -30 0 -14 5 -25 6 -25
2 0 -4 -18 -7 -40 -7 -22 0 -40 3 -40 7 0 4 -11 3 -25 -2 -16 -6 -25 -6 -25 1
0 6 -6 6 -19 0 -10 -6 -21 -8 -23 -5 -10 9 -48 13 -48 4 0 -6 -10 -6 -25 0
-16 6 -25 6 -25 0 0 -6 -9 -6 -24 0 -13 5 -26 7 -28 5 -10 -10 -54 -12 -70 -3
-12 5 -18 5 -18 -1 0 -7 -8 -7 -23 -2 -13 5 -30 5 -37 1 -8 -5 -19 -5 -25 0
-6 5 -17 5 -25 0 -8 -5 -21 -5 -31 1 -11 6 -20 5 -24 -1 -4 -6 -13 -7 -24 -1
-10 6 -23 6 -31 1 -8 -5 -21 -5 -31 1 -11 6 -20 5 -24 -1 -4 -7 -13 -7 -26 0
-12 7 -19 7 -19 1 0 -7 -8 -7 -23 -2 -13 5 -30 5 -37 1 -8 -5 -19 -5 -25 0 -6
5 -17 5 -25 0 -8 -5 -21 -5 -31 1 -11 6 -20 5 -24 -1 -4 -6 -13 -7 -24 -1 -10
6 -23 6 -31 1 -8 -5 -21 -5 -30 0 -9 5 -22 5 -30 0 -8 -5 -21 -5 -31 1 -11 5
-20 5 -24 0 -3 -5 -17 -6 -33 -2 -15 5 -37 4 -50 0 -13 -5 -22 -4 -22 1 0 6
-9 6 -25 0 -16 -6 -25 -6 -25 0 0 6 -9 6 -24 0 -13 -5 -27 -6 -30 -3 -8 9 -76
9 -76 1 0 -4 -10 -4 -22 1 -13 5 -33 5 -45 0 -14 -5 -23 -5 -23 2 0 6 -7 6
-17 1 -20 -9 -54 -8 -71 2 -6 3 -13 2 -17 -3 -4 -7 -15 -7 -30 -1 -14 5 -25 6
-25 2 0 -4 -16 -6 -35 -4 -35 4 -35 5 -29 41 4 20 10 43 15 52 5 9 6 19 3 22
-3 3 -2 12 2 19 5 7 10 22 11 33 2 11 6 27 10 35 3 8 7 20 8 25 8 34 75 161
118 225 67 100 91 120 132 110 6 -1 35 -8 66 -16 76 -18 108 -24 149 -30 19
-3 42 -8 50 -11 8 -3 18 -6 21 -5 6 1 81 -10 162 -24 137 -23 562 -23 747 0
14 2 43 6 65 9 22 4 60 9 85 12 25 3 52 8 60 10 8 3 33 7 55 10 44 6 80 13 80
15 0 1 9 3 20 5 31 5 240 56 280 69 6 1 30 8 55 15 50 13 184 57 215 70 88 37
307 152 325 171 3 3 28 21 55 39 28 19 52 38 55 41 3 4 12 11 21 16 121 67
495 470 639 686 14 21 28 38 33 38 4 0 7 4 7 10 0 5 24 44 53 87 64 95 157
248 157 258 0 4 9 19 19 33 10 15 38 63 60 107 23 44 46 87 51 95 16 25 150
307 150 315 0 4 12 30 26 59 14 28 25 51 24 51 -1 0 3 11 8 25 29 74 50 127
57 145 4 11 9 25 11 30 2 6 26 76 53 157 50 144 105 346 116 424 3 21 8 53 11
69 12 69 10 182 -3 220 -16 49 -68 96 -148 137 -64 32 -215 91 -215 83 0 -2
-12 0 -27 6 -37 14 -191 48 -273 59 -130 18 -156 21 -240 26 -92 7 -430 11
-434 6z"/>
</g>
</svg>
