<?xml version="1.0" encoding="UTF-8"?>
<svg width="254px" height="179px" viewBox="0 0 254 179" version="1.1" xmlns="http://www.w3.org/2000/svg" xmlns:xlink="http://www.w3.org/1999/xlink">
    <!-- Generator: Sketch 47.1 (45422) - http://www.bohemiancoding.com/sketch -->
    <title>Zi Jia House logo</title>
    <desc>Created with Sketch.</desc>
    <defs></defs>
    <g id="Page-1" stroke="none" stroke-width="1" fill="none" fill-rule="evenodd">
        <g id="Ji-Zia-Case-study" transform="translate(-693.000000, -191.000000)" fill-rule="nonzero">
            <g id="Zi-Jia-House-logo" transform="translate(693.000000, 191.000000)">
                <g id="#030303ff" fill="#030303">
                    <path d="M66.8719243,2.53435644 C68.8328076,1.06842999 71.2656151,0.346859972 73.6908517,0.222800566 C77.9053628,-0.0278500707 82.1880126,0.516492221 86.185489,1.88874116 C88.5678233,2.83817539 90.511041,4.7421075 91.6694006,7.02074965 C92.229653,8.08664781 92.7217666,9.2993918 93.7968454,9.95513437 C94.7936909,10.6058133 96.0328076,10.4488402 97.1583596,10.4463083 C99.2731861,10.3728854 101.382965,10.6210042 103.475079,10.9071004 C104.769716,11.1121782 106.182965,11.5324611 106.980442,12.6565912 C107.84858,13.9478218 107.866246,15.6264215 107.578549,17.1050071 C107.038486,19.2823762 105.229022,20.7786846 103.568454,22.1281471 C101.562145,23.745983 99.2984227,24.9916407 97.0523659,26.2322348 C94.0794953,27.9083027 91.8283912,30.6933098 90.4782334,33.8049222 C90.0820189,34.7720792 89.7539432,35.8810184 90.1249211,36.9064074 C90.4605678,37.8659689 91.3665615,38.4761386 92.2700315,38.8356577 C94.059306,39.5015276 95.9318612,39.899024 97.7564669,40.44843 C99.2731861,40.9193494 100.633438,42.0181612 101.203785,43.5321924 C102.306625,46.4944272 101.799369,50.1908911 99.3842271,52.3657284 C97.385489,54.3506789 94.4,54.5025884 92.0782334,55.9305375 C89.355205,57.510396 87.429653,60.2624894 86.5438486,63.2576379 C86.1602524,64.5210184 86.3495268,65.8856719 86.8138801,67.1009477 C87.1697161,68.0073409 87.8687697,68.8681612 88.8555205,69.0934936 C90.0239748,69.4125035 91.2025237,68.9643706 92.2826498,68.539024 C102.970347,64.3336634 113.738801,60.2700849 124.810095,57.178727 C131.323659,55.3406223 137.867508,53.5911315 144.474448,52.1024187 C146.523659,51.6897313 148.557729,51.0061386 150.675079,51.0998161 C153.413249,51.2188119 156.02776,52.5328289 157.885174,54.5355021 C158.897161,55.6064639 159.964669,56.890099 159.941956,58.4522348 C159.853628,59.9814569 158.397476,60.9435502 157.067508,61.3486421 C154.576656,62.0879349 151.944479,61.8524752 149.388013,62.0626167 C138.107256,62.8474823 126.99306,65.2375248 116.158991,68.4149646 C104.555205,71.7544413 93.2719243,76.0787977 81.9104101,80.1423762 C81.1936909,80.3449222 80.7520505,80.9525601 80.7141956,81.6893211 C81.473817,82.1146676 82.2788644,82.5349505 82.7911672,83.2691796 C84.5022082,85.5402263 86.0365931,88.0796464 86.4858044,90.9355446 C86.6119874,91.7001556 86.2334385,92.5280622 85.5470032,92.9002405 C83.5810726,94.0294342 81.2063091,94.2218529 79.3236593,95.5206789 C78.3545741,96.1460396 77.6176656,97.0625601 77.0422713,98.0525035 C74.9652997,101.584399 72.0302839,104.495997 69.0271293,107.235431 C65.5141956,110.372362 62.1148265,113.633352 58.6044164,116.775347 C57.933123,117.281711 57.6176656,118.34761 58.29653,118.985629 C59.0283912,119.532504 59.9671924,119.679349 60.7873817,120.051528 C59.3009464,120.73512 57.6429022,120.798416 56.0378549,120.927539 C54.0694006,121.023748 52.0100946,121.069321 50.1400631,120.355347 C48.5148265,119.712263 47.7602524,117.874158 47.8334385,116.215813 C47.9394322,113.334597 48.8176656,110.344512 50.8391167,108.220311 C52.1287066,106.827808 53.8725552,106.025219 55.4271293,104.987171 C61.1457413,101.19703 65.2239748,95.4700424 68.5905363,89.5886139 C68.9842271,88.9303395 69.2113565,87.9910325 68.570347,87.4011174 C67.8914826,86.844116 66.9652997,87.1833805 66.2662461,87.5099859 C55.9444795,92.4217256 45.6201893,97.323338 35.3135647,102.262928 C32.792429,103.430099 30.3268139,104.746648 28.1312303,106.463225 C26.8214511,107.420255 25.7337539,108.660849 24.3533123,109.524201 C22.8618297,110.45338 21.1432177,111.038232 19.3842271,111.101528 C13.8801262,111.217992 8.27003155,110.595163 3.13438486,108.503876 C2.18044164,108.096252 1.09526814,107.769646 0.43659306,106.91389 C-0.0958990536,105.949264 0.2170347,104.56942 1.1659306,103.982037 C2.18044164,103.323762 3.42460568,103.313635 4.57539432,103.103494 C6.22586751,102.804738 7.82082019,102.240141 9.35268139,101.559081 C26.7810726,93.657256 44.3129338,85.9554455 62.170347,79.0739463 C64.3583596,78.225785 66.5589905,77.3269873 68.9059937,77.0332956 C70.6649842,76.767454 72.6990536,76.6535219 73.9634069,75.2179774 C75.2757098,73.6659689 75.0082019,71.4531542 74.7305994,69.5897313 C74.3747634,68.0959547 73.9962145,66.4857143 72.918612,65.3337341 C71.9470032,64.3513861 70.4176656,64.4678501 69.2113565,64.872942 C67.8258675,65.2881612 66.5665615,66.0401132 65.1634069,66.3996322 C63.533123,66.8427016 61.8018927,66.8097878 60.1514196,66.5110325 C57.718612,66.0553041 55.2429022,65.898331 52.8050473,65.4957709 C52.0580442,65.3565205 51.0107256,64.9970014 51.0637224,64.0576945 C51.3817035,61.986662 53.1533123,60.5409901 54.9173502,59.647256 C60.2725552,56.9230127 65.2921136,53.6012588 70.2687697,50.2491231 C73.8523659,47.7983168 74.7684543,42.3599576 72.3785489,38.7799576 C71.9116719,38.0431966 71.0586751,37.5191089 70.1678233,37.6406365 C68.6586751,37.8178642 67.1268139,37.9773692 65.615142,37.7317822 C62.2914826,37.2026308 59.2832808,35.612645 56.2927445,34.1492504 C55.6845426,33.822645 54.9148265,33.4428713 54.844164,32.6630693 C55.0384858,31.888331 55.7324921,31.4022207 56.3230284,30.9363649 C59.2529968,28.7767185 62.3293375,26.7335361 65.7665615,25.4828147 C67.5583596,24.8650495 69.49653,24.3890665 70.9022082,23.0269448 C72.6839117,21.3837907 73.1886435,18.7886704 72.9287066,16.4593918 C72.7116719,14.2465771 72.0555205,12.0565488 70.8694006,10.1728713 C69.8246057,8.48414427 68.3735016,7.11189533 67.0132492,5.6890099 C66.5766562,5.19024045 66.0542587,4.67628006 65.9583596,3.98762376 C65.8826498,3.34707214 66.4227129,2.88881188 66.8719243,2.53435644 Z" id="Shape"></path>
                    <path d="M102.319243,80.6158274 C104.196845,80.1043989 106.367192,79.5651202 108.161514,80.6208911 C109.668139,81.5551344 110.079495,83.4590665 110.185489,85.1123479 C110.379811,87.3175672 109.395584,89.4544272 107.926814,91.0520085 C101.872555,97.8094484 95.8031546,104.554229 89.7842271,111.347115 C88.9413249,112.385163 87.9697161,113.524484 87.9570978,114.939774 C87.9621451,115.957567 89.0119874,116.550014 89.9129338,116.64116 C91.6416404,116.957638 93.3173502,116.347468 94.9829653,115.993013 C94.0113565,117.461471 92.451735,118.464074 91.6845426,120.086973 C90.2839117,122.601075 90.5589905,125.565842 90.7533123,128.32553 C92.015142,143.235446 93.3148265,158.180806 93.0801262,173.161612 C93.0069401,176.387157 89.7968454,179.286096 86.5741325,178.749349 C85.1104101,178.516421 84.1085174,177.328996 83.3135647,176.177016 C80.0731861,171.900764 75.2353312,169.371471 70.9905363,166.26239 C67.9545741,164.148317 65.6605678,161.186082 62.748265,158.925163 C64.4164038,159.066945 65.9457413,159.872065 67.6214511,159.985997 C69.8952681,160.256902 72.3053628,159.83662 74.1981073,158.492221 C76.7444795,156.74273 78.1678233,153.724795 78.5438486,150.714455 C78.7962145,149.187765 78.7003155,147.638289 78.5337539,146.109066 C78.2864353,142.420198 77.5141956,138.797157 77.0069401,135.141202 C76.8504732,134.227214 76.6435331,133.054979 75.651735,132.697992 C74.5236593,132.341004 73.3249211,132.680269 72.214511,132.948642 C69.7968454,133.571471 67.6643533,135.004484 65.9457413,136.791952 C63.0107256,139.809887 59.1545741,141.86826 55.0637224,142.787313 C54.1047319,142.99239 53.0725552,143.017709 52.1589905,142.622744 C50.5716088,141.921429 49.4662461,140.237765 49.5268139,138.488274 C49.5621451,136.455219 50.3899054,134.434823 51.7526814,132.933451 C52.7747634,131.799194 54.2864353,131.295361 55.7678233,131.12826 C59.4624606,130.629491 62.9047319,128.862277 65.6984227,126.421598 C67.4851735,124.917694 68.9463722,123.087185 70.4630915,121.322504 C77.4788644,113.175092 84.4391167,104.977044 91.4725552,96.8448232 C92.3305994,95.9029844 93.140694,94.8801273 93.5671924,93.6648515 C94.3747634,91.4267185 94.3596215,88.965785 95.3488959,86.7808204 C96.5451104,83.7730127 99.2252366,81.4817115 102.319243,80.6158274 Z" id="Shape"></path>
                    <path d="M103.646688,113.35232 C105.294637,112.59024 107.187382,112.33959 108.966562,112.74215 C111.553312,113.289024 113.741325,114.904328 115.757729,116.539887 C117.928076,118.309632 119.48265,120.945262 119.565931,123.793564 C119.581073,125.09239 119.639117,126.517808 118.909779,127.657129 C118.177918,128.707836 116.744479,128.7129 115.603785,128.573649 C112.956467,128.295149 110.644795,126.403876 109.612618,123.975856 C108.855521,122.211174 108.045426,120.433833 106.776025,118.97297 C105.688328,117.641231 103.974763,116.798133 102.241009,117.003211 C99.9041009,117.261457 97.6328076,117.977963 95.2832808,118.132405 C95.881388,117.329816 96.8353312,116.962702 97.6832808,116.491782 C99.6567823,115.418289 101.610095,114.306818 103.646688,113.35232 Z" id="Shape"></path>
                    <path d="M106.985489,150.770156 C112.5653,150.33215 118.306625,149.506775 123.800631,151.013211 C127.555836,152.01075 130.975394,154.383069 132.986751,157.745332 C134.334385,160.013847 135.53817,162.616563 135.101577,165.328147 C134.639748,168.338487 133.095268,171.237426 130.715457,173.161612 C129.577287,173.974328 128.174132,174.797171 126.725552,174.427525 C121.140694,173.032489 115.194953,171.743791 110.735647,167.839717 C111.631546,167.145997 112.646057,166.485191 113.123028,165.409165 C114.132492,163.312815 113.615142,160.687313 112.052997,159.003649 C110.190536,156.99338 108.411356,154.874243 106.213249,153.215898 C105.776656,152.813338 105.014511,152.425969 105.249211,151.711994 C105.408202,150.922065 106.326814,150.81826 106.985489,150.770156 Z" id="Shape"></path>
                    <path d="M33.9154574,154.066591 C35.6189274,153.643777 37.3375394,154.367878 38.6927445,155.370481 C41.5116719,157.446577 44.0277603,160.158161 45.1785489,163.530552 C45.9230284,165.756025 46.3596215,168.239745 45.5722397,170.518388 C44.8454259,172.860325 43.666877,175.283281 41.4485804,176.531471 C38.977918,177.893593 36.0504732,177.896124 33.3072555,177.797383 C31.1722397,177.698642 28.8656151,176.949222 27.6012618,175.116181 C26.9577287,174.235106 27.1066246,173.080594 27.444795,172.113437 C28.815142,168.047327 29.2290221,163.755884 30.0264984,159.560651 C30.5514196,157.368091 31.6037855,154.836266 33.9154574,154.066591 Z" id="Shape"></path>
                </g>
                <g id="#757575ff" transform="translate(176.000000, 19.000000)" fill="#757575">
                    <path d="M40.8156566,6.50589595 C43.9646465,4.85780347 46.780303,2.62728324 49.2171717,0.0356069364 C50.790404,9.47907514 49.9166667,19.6168786 45.3813131,28.1523699 C41.9292929,34.7396532 36.0252525,40.0857803 28.9469697,42.3926012 C22.8510101,44.4908671 16.1742424,44.2797688 10.0151515,42.5655491 C6.68939394,41.6168786 3.42171717,40.3655491 0.421717172,38.6284393 C3.60606061,37.753526 6.8510101,37.0744509 9.97979798,35.9808092 C18.6919192,33.1119075 26.9040404,28.6610405 33.979798,22.7833526 C36.4318182,20.7893642 38.6919192,18.574104 40.8964646,16.3105202 C37.8333333,23.7727168 32.0782828,29.833526 25.5479798,34.3708671 C23.1540404,36.0698266 20.5252525,37.3669364 17.8762626,38.5953757 C22.6414141,39.1091329 27.6136364,38.4427746 31.8888889,36.1842775 C34.9848485,34.5539884 37.6792929,32.1912139 39.7878788,29.3909827 C42.8888889,25.3317919 44.8510101,20.4841618 45.9671717,15.5144509 C46.7525253,11.9156069 47.1515152,8.20485549 46.9116162,4.51953757 C46.1792929,5.41225434 45.5606061,6.38890173 44.9065657,7.33757225 C40.3106061,13.8434682 34.3030303,19.3218497 27.4393939,23.3174566 C19.0151515,28.2337572 9.65151515,31.3213873 0.179292929,33.4145665 C0.297979798,28.9128324 1.89141414,24.3576879 5.01010101,21.0716763 C7.96969697,17.8772254 12.030303,16.0510983 16.0656566,14.6547977 C24.2954545,11.8901734 33.0631313,10.603237 40.8156566,6.50589595 Z" id="Shape"></path>
                </g>
                <g id="#ea2224ff" transform="translate(152.000000, 88.000000)" fill="#EA2224">
                    <path d="M78.8749254,0.451449275 C81.0519403,-0.26884058 83.2289552,0.864855072 85.0380597,1.99347826 C86.6035821,2.95471014 87.7732836,4.70724638 87.6058209,6.5942029 C87.3926866,8.94782609 85.768806,10.7865942 84.3758209,12.567029 C82.8001493,14.5528986 82.0744776,17.1855072 82.4779104,19.6963768 C82.7976119,21.8369565 82.2597015,23.9826087 82.4702985,26.1282609 C83.9368657,23.6630435 85.0152239,20.9797101 86.611194,18.5931159 C87.9052239,16.7036232 89.9934328,15.1768116 92.3683582,15.2275362 C94.471791,15.1108696 96.4940299,16.3967391 97.450597,18.2431159 C98.2473134,19.7547101 98.7192537,21.4083333 99.2597015,23.0213768 C101.238806,29.3797101 102.230896,36.1032609 101.642239,42.7583333 C101.393582,45.8880435 100.832836,48.9974638 99.9929851,52.0257246 C99.2470149,54.698913 97.838806,57.3568841 95.4258209,58.8735507 C93.0864179,60.4333333 89.8995522,60.232971 87.5220896,58.865942 C86.1265672,58.1253623 84.9746269,57.0297101 83.9013433,55.890942 C83.5004478,55.5460145 83.081791,54.9702899 82.4829851,55.157971 C81.4173134,55.7108696 80.7931343,56.9434783 79.5853731,57.2402174 C78.0071642,57.4862319 76.5228358,56.3195652 76.0508955,54.8561594 C74.4980597,50.7905797 75.0486567,46.3547101 74.9192537,42.1014493 C74.6807463,31.0231884 76.9135821,19.9601449 80.9656716,9.66811594 C81.6989552,7.66956522 82.0414925,5.34384058 81.1508955,3.33768116 C80.6231343,2.21413043 79.6665672,1.38224638 78.8749254,0.451449275 L78.8749254,0.451449275 Z M90.44,20.6677536 C89.3134328,22.3797101 88.4101493,24.2286232 87.4662687,26.0471014 C87.0298507,26.9677536 86.4944776,27.8858696 86.3853731,28.9181159 C86.3371642,29.5065217 86.8902985,29.8818841 87.3622388,30.0974638 C88.5877612,30.6731884 90.051791,31.0003623 90.9043284,32.1442029 C91.7416418,33.2550725 91.7720896,34.7057971 91.7644776,36.0373188 C91.7543284,37.5793478 91.9852239,39.2228261 92.9646269,40.4706522 C93.5735821,41.3101449 94.5022388,41.923913 94.8904478,42.9105072 C95.1746269,43.6764493 94.8295522,44.4981884 94.3297015,45.0891304 C92.7971642,46.8365942 90.6708955,48.332971 88.2376119,48.1858696 C88.5268657,47.4731884 88.9023881,46.7985507 89.298209,46.1416667 C89.5189552,45.7181159 89.8513433,45.2463768 89.6737313,44.7492754 C89.3616418,43.7550725 88.7983582,42.8572464 88.5623881,41.8351449 C88.0828358,40.1054348 88.3264179,38.2971014 88.2325373,36.5293478 C88.2122388,35.7684783 87.8316418,34.9898551 87.1541791,34.617029 C86.0986567,34.2518116 85.2892537,35.2536232 84.6777612,35.9536232 C83.4953731,37.2902174 83.6120896,39.1746377 83.5613433,40.8358696 C83.5714925,43.4963768 83.3507463,46.2177536 84.0992537,48.8072464 C84.7386567,51.1507246 86.448806,53.0427536 88.351791,54.4782609 C89.4834328,55.2923913 90.9068657,56.0355072 92.3353731,55.5815217 C93.7740299,55.1503623 94.6062687,53.7554348 95.0680597,52.4163043 C95.750597,50.4050725 96.3519403,48.3583333 96.7401493,46.265942 C98.3031343,37.723913 96.4813433,29.0094203 93.758806,20.8985507 C93.4670149,20.1782609 93.0585075,19.1460145 92.1171642,19.2068841 C91.3432836,19.3615942 90.8764179,20.0742754 90.44,20.6677536 Z" id="Shape"></path>
                    <path d="M15.8531343,5.47318841 C15.6120896,4.83152174 16.190597,4.20253623 16.7741791,4.025 C17.7079104,4.10615942 18.5477612,4.57282609 19.3850746,4.96594203 C21.120597,5.81811594 22.9119403,6.77681159 24.0689552,8.37971014 C25.208209,10.0206522 25.5126866,12.0394928 25.9795522,13.9365942 C27.5780597,13.5764493 29.0649254,12.873913 30.6050746,12.3336957 C33.2007463,11.4054348 35.788806,10.4467391 38.3616418,9.45507246 C39.569403,9.00615942 40.8177612,8.57753623 42.1219403,8.54456522 C43.7153731,8.54963768 45.2986567,9.28514493 46.3313433,10.5025362 C47.1179104,11.4003623 47.1585075,12.9449275 46.2856716,13.8021739 C45.5929851,14.492029 44.7252239,14.9637681 43.9031343,15.476087 C38.7676119,18.5449275 33.6371642,21.6137681 28.4965672,24.6724638 C27.4740299,25.2608696 26.5631343,26.0242754 25.8247761,26.9423913 C26.6595522,27.4876812 27.7607463,27.6423913 28.4534328,28.382971 C29.0014925,29.6815217 28.1920896,30.9826087 27.4283582,31.9945652 C26.7052239,32.8771739 26.6214925,34.0463768 26.5377612,35.1369565 C26.4464179,35.7507246 26.8802985,36.2503623 27.1213433,36.7753623 C28.0347761,38.4416667 27.2837313,40.5644928 28.3341791,42.1826087 C29.3034328,43.290942 31.1125373,42.8496377 32.1020896,41.9797101 C33.5407463,40.7496377 35.1976119,39.725 37.0777612,39.3547101 C41.2186567,38.5202899 45.7579104,39.3597826 49.1604478,41.9112319 C50.7970149,43.1971014 52.2838806,44.8938406 52.7101493,46.9836957 C52.9664179,48.1807971 52.2280597,49.3398551 51.2207463,49.9358696 C48.9397015,51.3333333 46.1968657,51.7822464 43.5555224,51.7492754 C44.798806,50.5039855 46.5546269,49.7557971 47.4452239,48.1833333 C47.9653731,47.2221014 47.1559701,46.2355072 46.4734328,45.6141304 C43.6265672,43.1692029 39.9829851,41.7539855 36.2861194,41.2568841 C34.6495522,41.0210145 33.1347761,42.0913043 32.2797015,43.4076087 C31.7671642,44.1836957 31.9701493,45.1981884 32.421791,45.9514493 C33.1144776,47.1307971 33.8985075,48.2644928 34.4313433,49.5326087 C35.9689552,52.8195652 36.0197015,56.667029 35.0149254,60.1163043 C34.0735821,63.1699275 32.5486567,66.3021739 29.7271642,68.0242754 C26.8295522,69.9163043 23.1935821,70.1623188 19.849403,69.6905797 C18.1773134,69.3913043 16.2591045,68.9449275 15.3228358,67.375 C13.8359701,65.2268116 13.8410448,62.5434783 13.4452239,60.0681159 C13.3361194,58.876087 12.2349254,58.2775362 11.4737313,57.5217391 C10.9992537,57.1108696 11.1565672,56.4336957 11.2758209,55.9061594 C11.648806,54.490942 12.2323881,53.1416667 12.6002985,51.7264493 C11.2631343,52.3199275 9.89044776,53.0757246 8.37059701,52.8981884 C6.47014925,52.6826087 4.36164179,52.3351449 2.99149254,50.8717391 C4.15358209,50.5318841 5.40701493,50.2833333 6.3458209,49.4615942 C7.76671642,48.2594203 8.88059701,46.7503623 10.1644776,45.4112319 C12.2653731,43.1971014 14.2038806,40.8333333 16.3428358,38.6547101 C17.5125373,37.3358696 18.8192537,36.1286232 19.8468657,34.6880435 C18.7608955,34.4192029 17.6825373,34.7768116 16.5991045,34.825 C15.518209,34.6855072 15.089403,33.4097826 15.081791,32.4637681 C15.0183582,31.2793478 15.9216418,30.3865942 16.7716418,29.7043478 C23.5944776,24.5938406 30.4985075,19.5949275 37.3213433,14.4894928 C33.6650746,14.5960145 30.1179104,15.7525362 26.7559701,17.1221014 C22.3486567,19.0318841 18.2052239,21.5681159 14.5920896,24.740942 C12.7373134,26.4275362 10.8470149,28.0887681 9.18253731,29.9706522 C8.10925373,31.0967391 7.21358209,32.4282609 5.89925373,33.2956522 C4.97059701,33.9322464 3.72731343,33.7623188 2.80373134,33.2144928 C1.87253731,32.6717391 0.903283582,32.0731884 0.317164179,31.1449275 C-0.202985075,30.2217391 0.25880597,29.1514493 0.59119403,28.251087 C1.93850746,24.9235507 3.67656716,21.765942 5.53641791,18.6996377 C5.84597015,17.9793478 6.65791045,18.0376812 7.31253731,17.9996377 C7.62208955,20.0210145 6.58940299,22.0373188 7.14761194,24.0307971 C7.72358209,24.7155797 8.51268657,24.15 9.09880597,23.8101449 C13.2219403,21.2358696 17.3704478,18.7072464 21.508806,16.1634058 C21.8970149,15.9047101 22.2547761,15.607971 22.6125373,15.3112319 C21.4859701,14.4539855 20.4152239,13.5257246 19.258209,12.709058 C18.3904478,12.0927536 17.3070149,11.9710145 16.2844776,11.8137681 C17.0076119,11.1619565 18.0986567,10.5253623 17.9565672,9.39673913 C17.9058209,7.80905797 16.4037313,6.85797101 15.8531343,5.47318841 L15.8531343,5.47318841 Z M21.9376119,43.8032609 C19.2810448,44.8481884 17.3323881,47.7242754 17.6850746,50.6130435 C18.7202985,50.1844203 19.590597,49.4108696 20.6714925,49.0938406 C21.9832836,48.857971 22.9601493,50.2655797 24.2592537,50.1007246 C25.2386567,49.6188406 25.8552239,48.6373188 26.5250746,47.8105072 C27.288806,46.9025362 27.37,45.3960145 26.4667164,44.5539855 C25.2564179,43.4735507 23.4346269,43.3213768 21.9376119,43.8032609 L21.9376119,43.8032609 Z M24.1501493,57.8793478 C23.4371642,58.7061594 22.2319403,59.0764493 21.1814925,58.7619565 C20.6232836,58.625 20.0219403,58.2826087 19.9559701,57.6536232 C19.6413433,55.7615942 19.8189552,53.8289855 19.6464179,51.9242754 C18.2407463,52.6394928 17.2258209,53.9481884 16.6067164,55.3710145 C15.858209,57.225 15.4471642,59.3275362 16.0713433,61.2778986 C16.5864179,62.9746377 17.5125373,64.7804348 19.2607463,65.4652174 C21.1180597,66.1880435 23.12,65.4144928 24.8352239,64.651087 C27.6973134,63.382971 29.8286567,60.6514493 30.3843284,57.5775362 C30.9019403,54.6862319 30.4477612,51.6655797 29.3008955,48.9771739 C27.3040299,51.7771739 26.3373134,55.1960145 24.1501493,57.8793478 Z" id="Shape"></path>
                </g>
            </g>
        </g>
    </g>
</svg>