<?xml version="1.0" encoding="UTF-8"?>
<svg width="239px" height="229px" viewBox="0 0 239 229" version="1.1" xmlns="http://www.w3.org/2000/svg" xmlns:xlink="http://www.w3.org/1999/xlink">
    <!-- Generator: Sketch 47.1 (45422) - http://www.bohemiancoding.com/sketch -->
    <title>apple</title>
    <desc>Created with Sketch.</desc>
    <defs></defs>
    <g id="Page-1" stroke="none" stroke-width="1" fill="none" fill-rule="evenodd">
        <g id="Desktop" transform="translate(-675.000000, -3067.000000)">
            <g id="Group" transform="translate(644.000000, 2999.000000)">
                <g id="apple" transform="translate(31.000000, 57.000000)">
                    <path d="M122.938018,93.6486387 C122.582395,96.0671061 115.376193,158.307412 122.216827,165.518042 C129.05746,172.728673 138.064006,164.947465 136.346055,160.984622 C128.685128,143.952463 120.311577,114.810298 133.328183,100.350662 C133.607414,100.040475 134.09157,99.7388276 134.606272,99.8749658 C145.39951,102.72977 161.330562,105.189163 185.223058,97.5961031 C218.565861,86.9997267 239.160085,27.6767056 235.799718,19.6448763 C232.77532,12.4160673 194.32245,5.07296535 161.914273,23.2965738 C140.063099,35.5838194 128.771864,53.974719 122.938018,93.6486387 Z" id="Combined-Shape" fill="#00B74F"></path>
                    <path d="M122.938018,93.6486387 C122.582395,96.0671061 115.376193,158.307412 122.216827,165.518042 C129.05746,172.728673 138.064006,164.947465 136.346055,160.984622 C128.685128,143.952463 120.311577,114.810298 133.328183,100.350662 C133.607414,100.040475 134.09157,99.7388276 134.606272,99.8749658 C145.39951,102.72977 161.330562,105.189163 185.223058,97.5961031 C218.565861,86.9997267 239.160085,27.6767056 235.799718,19.6448763 C232.77532,12.4160673 194.32245,5.07296535 161.914273,23.2965738 C140.063099,35.5838194 128.771864,53.974719 122.938018,93.6486387 Z" id="Combined-Shape" fill="#00B74F"></path>
                    <path d="M148.600897,102.278536 C147.169108,109.374608 161.012338,110.131318 182.857949,98.1453392 C199.063381,89.2539441 202.999569,83.16781 210.657964,67.0053408 C218.31636,50.8428717 218.888442,6.50120464 215.840741,9.3544865 C204.904866,19.8624428 180.984139,43.3575135 182.779691,43.7186459 C184.575243,44.0797782 189.027847,43.3604847 193.271226,43.1991547 C202.091422,42.8638176 205.345875,44.3517424 205.345875,45.7735314 C205.345875,47.1953204 198.852361,48.9088808 193.271226,48.3479081 C189.422494,47.9610632 182.446442,46.923352 180.615389,46.3703387 C178.784337,45.8173254 167.437724,60.8581805 169.044806,61.7092745 C170.651888,62.5603686 177.055126,62.4832523 181.605594,62.9080247 C190.620211,63.7495119 196.157472,68.0216833 196.157472,69.4434723 C196.157472,70.8652613 187.717726,70.8216449 182.136592,70.2606723 C178.387608,69.8838533 169.201831,65.8493533 166.950034,64.7619583 C164.698236,63.6745632 156.324422,78.1411304 158.155725,79.2886166 C159.987028,80.4361027 164.987735,81.894414 169.524629,82.2349713 C178.140921,82.8817445 181.902177,85.3308077 183.832557,86.5474791 C185.762938,87.7641505 174.511924,87.1084518 168.93079,86.5474791 C165.37972,86.1905529 159.257476,83.7807994 157.240796,82.832505 C155.224116,81.8842106 150.032687,95.1824643 148.600897,102.278536 Z" id="Combined-Shape" fill="#80E0A7" transform="translate(183.031321, 58.323617) rotate(19.000000) translate(-183.031321, -58.323617) "></path>
                    <path d="M238.547208,201.645828 C238.547208,200.862816 238.505804,200.141652 238.433309,199.430775 C237.335775,181.359882 223.657978,166.710315 205.983881,164.009545 C203.778449,136.028621 180.274561,114.000467 151.584304,114.000467 C132.542995,114.000467 115.789738,123.705567 106.01674,138.407355 C101.854403,137.562547 97.5057232,137.098932 93.0327278,137.098932 C70.9161179,137.098932 51.8864712,148.071337 43.3009707,163.856071 C41.7064373,163.650032 40.0912817,163.516075 38.4346167,163.516075 C17.2086299,163.516075 0,180.639061 0,201.769947 C0,220.221955 12.4766752,237.035566 30.2334625,238.850145 C32.998105,239.128319 41.7264763,239.221027 41.7264763,239.221027 L195.496794,239.221027 C195.496794,239.221027 204.794819,239.241625 207.880431,238.93254 C224.18811,237.284121 236.332657,222.716316 238.280895,206.283292 C238.280895,206.252381 238.29126,206.22147 238.29126,206.190559 C238.332689,205.799053 238.363729,205.417859 238.405159,205.026353 C238.487992,203.965193 238.560461,202.893721 238.560461,201.801518 L238.560461,201.770607 C238.560461,201.729409 238.550123,201.688186 238.550123,201.646988 L238.547208,201.645828 Z" id="Combined-Shape-Copy-4" fill="#ED8888" transform="translate(119.280230, 176.610889) scale(-1, 1) rotate(-180.000000) translate(-119.280230, -176.610889) "></path>
                </g>
            </g>
        </g>
    </g>
</svg>
