<?xml version="1.0" encoding="UTF-8"?>
<svg width="60px" height="60px" viewBox="0 0 60 60" version="1.1" xmlns="http://www.w3.org/2000/svg" xmlns:xlink="http://www.w3.org/1999/xlink">
    <!-- Generator: Sketch 47.1 (45422) - http://www.bohemiancoding.com/sketch -->
    <title>back to top</title>
    <desc>Created with Sketch.</desc>
    <defs></defs>
    <g id="Page-1" stroke="none" stroke-width="1" fill="none" fill-rule="evenodd">
        <g id="Desktop-1024" transform="translate(-42.000000, -3400.000000)" fill-rule="nonzero" fill="#ED8888">
            <g id="back-to-top" transform="translate(42.000000, 3400.000000)">
                <path d="M30,0 C13.4586667,0 0,13.4586667 0,30 C0,46.5413333 13.4586667,60 30,60 C46.5413333,60 60,46.5413333 60,30 C60,13.4586667 46.5413333,0 30,0 Z M30,56.7186667 C15.2653333,56.7186667 3.28133333,44.734 3.28133333,30 C3.28133333,15.266 15.266,3.28133333 30,3.28133333 C44.734,3.28133333 56.7186667,15.266 56.7186667,30 C56.7186667,44.734 44.734,56.7186667 30,56.7186667 Z" id="Shape"></path>
                <path d="M31.604,21.146 C30.7472,20.2892 29.2498667,20.2892 28.3930667,21.146 L16.3410667,33.2006667 C15.70044,33.8412933 15.70044,34.8803333 16.3410667,35.521 C16.96086,36.1407933 18.0416,36.1407933 18.6614,35.521 L30.0000667,24.1796667 L41.3387333,35.5183333 C41.6486267,35.8282267 42.0600667,36.0001067 42.4976,36.0001067 C42.9351333,36.0001067 43.3465333,35.8282333 43.6564667,35.5183333 C43.9664,35.2084333 44.13824,34.797 44.13824,34.3594667 C44.13824,33.9219333 43.9663667,33.5105333 43.6564667,33.2006 L31.604,21.146 Z" id="Shape"></path>
            </g>
        </g>
    </g>
</svg>
