<?xml version="1.0" encoding="UTF-8"?>
<svg width="1513px" height="105px" viewBox="0 0 1513 105" version="1.1" xmlns="http://www.w3.org/2000/svg" xmlns:xlink="http://www.w3.org/1999/xlink">
    <!-- Generator: Sketch 47.1 (45422) - http://www.bohemiancoding.com/sketch -->
    <title>cloud divider</title>
    <desc>Created with Sketch.</desc>
    <defs></defs>
    <g id="Page-1" stroke="none" stroke-width="1" fill="none" fill-rule="evenodd">
        <g id="Artboard" transform="translate(0.000000, -204.000000)" fill="#FFFFFF">
            <path d="M1513,204.11407 C1492.01365,204.11407 1473.54382,214.888601 1462.82048,231.207712 C1444.04879,214.362852 1419.22282,204.11407 1392,204.11407 C1344.65733,204.11407 1304.56367,235.11049 1290.95596,277.891354 C1277.79812,269.137838 1261.99561,264.036228 1245,264.036228 C1224.29353,264.036228 1205.35803,271.608849 1190.81866,284.132346 C1179.26935,238.158164 1137.61555,204.11407 1088,204.11407 C1049.08043,204.11407 1015.05987,225.062054 996.625984,256.284247 C986.878795,252.269244 976.198387,250.054391 965,250.054391 C940.356075,250.054391 918.220688,260.780783 903.019343,277.813801 C889.387862,235.073036 849.314054,204.11407 802,204.11407 C761.95949,204.11407 727.10426,226.286093 709.072263,259.007286 C699.377627,238.935681 678.808201,225.086825 655,225.086825 C632.014013,225.086825 612.046963,237.99566 601.970748,256.950353 C593.618901,252.547173 584.100939,250.054391 574,250.054391 C561.643655,250.054391 550.159694,253.784666 540.615591,260.179126 C534.723593,233.263733 510.717956,213.11407 482,213.11407 C460.580531,213.11407 441.782533,224.32336 431.166497,241.188665 C417.404659,231.067471 400.401664,225.086825 382,225.086825 C363.800813,225.086825 346.969686,230.936582 333.288944,240.856066 C313.850801,218.355892 285.090739,204.11407 253,204.11407 C210.381255,204.11407 173.637056,229.233364 156.801355,265.456224 C141.772584,250.39012 120.976581,241.066067 98,241.066067 C88.912364,241.066067 80.1658445,242.524666 71.9823562,245.220236 C66.97318,230.081564 54.4811754,217.211134 36,210.11407 C17.5188246,203.017005 10,204.052889 7.82152436e-15,204.052889 C-2.02839594e-14,216.719556 2.73552118e-14,251.406616 1.50739038e-13,308.11407 C328.626758,308.11407 819.314246,307.979144 1472.06246,307.979144 C1472.09463,308.00918 1485.74048,308.054155 1513,308.11407 L1513,204.11407 Z" id="cloud-divider"></path>
        </g>
    </g>
</svg>