<?xml version="1.0" encoding="UTF-8"?>
<svg width="335px" height="171px" viewBox="0 0 335 171" version="1.1" xmlns="http://www.w3.org/2000/svg" xmlns:xlink="http://www.w3.org/1999/xlink">
    <!-- Generator: Sketch 47.1 (45422) - http://www.bohemiancoding.com/sketch -->
    <title>envelope front</title>
    <desc>Created with Sketch.</desc>
    <defs>
        <filter x="-9.6%" y="-31.3%" width="119.2%" height="162.5%" filterUnits="objectBoundingBox" id="filter-1">
            <feGaussianBlur stdDeviation="9.20245399" in="SourceGraphic"></feGaussianBlur>
        </filter>
    </defs>
    <g id="Page-1" stroke="none" stroke-width="1" fill="none" fill-rule="evenodd">
        <g id="Desktop" transform="translate(-627.000000, -3134.000000)">
            <g id="Group" transform="translate(644.000000, 2999.000000)">
                <g id="envelope-front" transform="translate(0.000000, 143.000000)">
                    <polygon id="Rectangle-2" fill="#000000" opacity="0.099999994" filter="url(#filter-1)" points="6.44171779 12.4139344 150.460123 52.897541 294.478528 12.4139344 294.478528 100.741803 6.44171779 100.741803"></polygon>
                    <path d="M8.23452497,0.919550256 L150,79.9763062 L291.765475,0.919550256 L291.765475,0.919550256 C293.541005,-0.0705898097 295.783024,0.566094887 296.773164,2.34162533 C297.078817,2.88972485 297.239264,3.50686855 297.239264,4.13443251 L297.239264,157.960653 L297.239264,157.960653 C297.239264,159.993603 295.591232,161.641634 293.558282,161.641634 L6.44171779,161.641634 L6.44171779,161.641634 C4.40876779,161.641634 2.7607362,159.993603 2.7607362,157.960653 L2.7607362,4.13443251 L2.7607362,4.13443251 C2.7607362,2.10148251 4.40876779,0.453450916 6.44171779,0.453450916 C7.06928175,0.453450916 7.68642545,0.613897769 8.23452497,0.919550256 Z" id="Rectangle-8" fill="#E8E8CF"></path>
                    <path d="M84.6198528,78.5008204 L247.258318,49.2379127 L247.258318,49.2379127 C251.259961,48.5179127 255.087608,51.1782096 255.807608,55.1798521 C256.234599,57.5529987 255.472391,59.9848211 253.767225,61.6896838 L158.460188,156.979794 L56.6450304,258.776871 L56.6450304,258.776871 C53.7697497,261.651641 49.1084124,261.651227 46.2336423,258.775946 C44.528843,257.070844 43.7670558,254.638999 44.1943706,252.266002 L73.4790665,89.6400121 L73.4790665,89.6400121 C74.5011225,83.9642532 78.9439477,79.522064 84.6198528,78.5008204 Z" id="Rectangle" fill="#F7F7DB" transform="translate(150.002118, 155.026194) rotate(45.000000) translate(-150.002118, -155.026194) "></path>
                </g>
            </g>
        </g>
    </g>
</svg>