<?xml version="1.0" encoding="UTF-8"?>
<svg width="9px" height="16px" viewBox="0 0 9 16" version="1.1" xmlns="http://www.w3.org/2000/svg" xmlns:xlink="http://www.w3.org/1999/xlink">
    <!-- Generator: Sketch 47.1 (45422) - http://www.bohemiancoding.com/sketch -->
    <title>right chevron</title>
    <desc>Created with Sketch.</desc>
    <defs></defs>
    <g id="Page-1" stroke="none" stroke-width="1" fill="none" fill-rule="evenodd">
        <g id="Desktop" transform="translate(-685.000000, -966.000000)" fill="#FFFFFF">
            <g id="Group-6" transform="translate(522.000000, 778.000000)">
                <g id="Group-3" transform="translate(0.000000, 178.000000)">
                    <path d="M165.775243,18 L171.644476,12.1307675 C172.122661,11.6525821 172.122661,10.8772904 171.644476,10.399105 L171.640076,10.3947057 C171.161891,9.91652029 170.386599,9.91652029 169.908414,10.3947057 L163.355524,16.9475951 L163.355524,16.9475951 C163.068832,17.2342872 162.954024,17.6277741 163.0111,18 C162.954024,18.3722259 163.068832,18.7657128 163.355524,19.0524049 L163.355524,19.0524049 L169.908414,25.6052943 C170.386599,26.0834797 171.161891,26.0834797 171.640076,25.6052943 L171.644476,25.600895 C172.122661,25.1227096 172.122661,24.3474179 171.644476,23.8692325 L165.775243,18 Z" id="right-chevron" transform="translate(167.500000, 18.000000) scale(-1, 1) translate(-167.500000, -18.000000) "></path>
                </g>
            </g>
        </g>
    </g>
</svg>