<?xml version="1.0" encoding="UTF-8"?>
<svg width="210px" height="158px" viewBox="0 0 210 158" version="1.1" xmlns="http://www.w3.org/2000/svg" xmlns:xlink="http://www.w3.org/1999/xlink">
    <!-- Generator: Sketch 47.1 (45422) - http://www.bohemiancoding.com/sketch -->
    <title>Conscious Layers Logo 3</title>
    <desc>Created with Sketch.</desc>
    <defs>
        <rect id="path-1" x="0" y="0" width="210.529039" height="158.48412"></rect>
    </defs>
    <g id="Page-1" stroke="none" stroke-width="1" fill="none" fill-rule="evenodd">
        <g id="CL-Case-study-Copy" transform="translate(-731.000000, -189.000000)">
            <g id="Conscious-Layers-Logo-3" transform="translate(731.000000, 189.000000)">
                <rect id="Page-3" x="0" y="0" width="211" height="158"></rect>
                <g id="Clipped">
                    <mask id="mask-2" fill="white">
                        <use xlink:href="#path-1"></use>
                    </mask>
                    <g id="Rectangle-path"></g>
                    <g id="Layer-1" mask="url(#mask-2)" fill-rule="nonzero">
                        <g transform="translate(-0.582873, 0.000000)" id="Shape">
                            <polygon fill="#12908E" points="158.852691 157.620066 0.53158011 157.620066 0.53158011 0 158.852691 0 158.852691 52.6243577 154.189707 52.6243577 154.189707 4.64233577 5.19456354 4.64233577 5.19456354 152.97773 154.189707 152.97773 154.189707 136.476547 158.852691 136.476547"></polygon>
                            <path d="M106.539262,127.027653 C107.30574,128.342015 107.690436,129.60531 107.690436,130.819281 C107.690436,131.092599 107.667704,131.343285 107.621075,131.570759 C107.575028,131.798814 107.521403,132.033832 107.459619,132.276394 C106.937948,132.199796 106.392961,132.162077 105.825243,132.162077 L104.052144,132.162077 L101.819157,132.162077 C101.066669,132.162077 100.230829,132.210821 99.3098895,132.30831 C98.3889503,132.405799 97.3595967,132.535204 96.2247431,132.697686 C95.0881409,132.859588 93.7685166,133.070814 92.2647044,133.330785 C91.5582624,133.085901 90.8524033,132.604259 90.1465442,131.887018 C89.4395193,131.168617 88.7797072,130.305142 88.1665249,129.296595 C88.473116,128.624617 88.8566464,127.791318 89.317116,126.797858 C89.7775856,125.805558 90.3144116,124.597971 90.9293425,123.176255 C91.5425249,121.755701 92.2256519,120.090263 92.9781409,118.179942 C93.730047,116.270201 94.5355773,114.061609 95.3958978,111.555328 C95.9478785,109.904978 96.4240856,108.453668 96.8233536,107.200237 C97.2220387,105.947387 97.582837,104.732836 97.9051657,103.556004 C98.2274945,102.379172 98.541663,101.148953 98.8494199,99.8653467 C99.1554282,98.5817409 99.4934945,97.0996752 99.862453,95.4185693 C101.089401,95.6634526 102.156641,96.1143394 103.062425,96.7706496 C103.967627,97.4287007 104.834942,98.3681934 105.66437,99.5902883 C105.417815,99.987208 105.095486,100.629011 104.697384,101.514536 C104.297533,102.400062 103.829486,103.476504 103.29266,104.743861 C102.755251,106.011219 102.164218,107.446861 101.520144,109.050208 C100.874903,110.652974 100.199354,112.370639 99.4934945,114.20262 C98.8185276,116.005007 98.1581326,117.70004 97.514058,119.287719 C96.8688177,120.875398 96.2935221,122.31162 95.7870055,123.593485 C95.280489,124.876511 94.8730608,125.976164 94.5670525,126.892445 C94.2598785,127.808146 94.1065829,128.495212 94.1065829,128.952482 C94.5973619,128.952482 95.0420939,128.937974 95.4419448,128.906639 C95.8406298,128.877044 96.2544696,128.823657 96.6852127,128.746478 C97.1142072,128.67046 97.582837,128.579354 98.0893536,128.47142 C98.5958702,128.365226 99.2014751,128.219573 99.9085,128.03562 C100.522265,127.883584 101.089401,127.753599 101.612238,127.646245 C102.133326,127.539471 102.648003,127.448365 103.154519,127.371186 C103.661619,127.295168 104.182707,127.233657 104.720116,127.187814 C105.256942,127.141971 105.863713,127.088584 106.539262,127.027653" fill="#1D1D1B"></path>
                            <path d="M125.202271,109.951401 C125.508279,109.951401 125.870243,110.005369 126.284083,110.111562 C126.698506,110.219496 127.074459,110.356445 127.412525,110.52415 C127.750008,110.692434 128.033867,110.868263 128.264102,111.051635 C128.494337,111.235007 128.609746,111.403292 128.609746,111.555909 C127.995398,112.839515 127.427097,114.130664 126.906008,115.429358 C126.383171,116.729212 125.939022,117.973938 125.570646,119.165858 C125.202271,120.357777 124.918412,121.473099 124.718486,122.512401 C124.518561,123.551704 124.419472,124.453478 124.419472,125.217142 C124.419472,126.073073 124.510983,126.783931 124.695754,127.348555 C124.879942,127.914339 125.186533,128.319383 125.616693,128.563686 C125.248318,128.807989 124.77211,129.006449 124.189238,129.159646 C123.605782,129.311682 123.08411,129.388861 122.623641,129.388861 C120.965367,129.388861 120.137105,128.258453 120.137105,125.995894 C120.137105,124.253858 120.719978,121.870599 121.88689,118.844956 C121.272541,120.24404 120.566682,121.561303 119.768729,122.793263 C118.970193,124.025803 118.157086,125.11385 117.32824,126.057405 C116.498812,127.00038 115.66239,127.769266 114.818972,128.362325 C113.973807,128.954803 113.198586,129.312843 112.492727,129.434704 C111.35729,129.434704 110.436351,128.919985 109.730492,127.892288 C109.023467,126.864591 108.671412,125.552551 108.671412,123.956168 C108.671412,122.237923 109.039787,120.427412 109.776539,118.524635 C110.51329,116.621858 111.456961,114.85719 112.608718,113.230051 C113.759309,111.604073 115.010155,110.245609 116.361254,109.156401 C117.711188,108.066613 119.01624,107.521719 120.275246,107.521719 C120.581254,107.613405 120.926898,107.796777 121.311011,108.071255 C121.694541,108.345153 122.062917,108.665474 122.416721,109.031058 C122.768776,109.396642 123.068373,109.77035 123.314345,110.151022 C123.559735,110.532274 123.697876,110.860139 123.728768,111.134617 C122.500072,111.317409 121.234072,111.912788 119.929602,112.917854 C118.62455,113.924661 117.443066,115.136891 116.383986,116.553964 C115.325489,117.972197 114.457008,119.48908 113.782624,121.105193 C113.107075,122.720726 112.769591,124.229485 112.769591,125.632051 C112.769591,126.211763 112.984088,126.577927 113.413666,126.729964 C114.304296,126.546591 115.331901,125.789891 116.498812,124.460442 C117.665141,123.130993 119.078025,121.076179 120.735715,118.294839 C121.041724,117.744723 121.387367,117.133675 121.771481,116.461117 C122.155011,115.789139 122.546119,115.085825 122.94597,114.352336 C123.344072,113.618266 123.735762,112.877814 124.120459,112.128657 C124.503406,111.38008 124.864204,110.654715 125.202271,109.951401" fill="#1D1D1B"></path>
                            <path d="M146.056881,121.366325 C145.350439,123.597547 144.64458,125.62915 143.938721,127.463453 C143.232279,129.296595 142.480373,130.985245 141.68242,132.528241 C140.883884,134.072398 140.024729,135.492372 139.10379,136.792226 C138.182851,138.09092 137.169818,139.319978 136.064691,140.482303 C134.65239,141.949281 133.194041,143.072146 131.690812,143.852058 C130.185834,144.631971 128.680856,145.020766 127.177627,145.020766 C126.409983,145.020766 125.649917,144.936044 124.898011,144.768339 C124.146105,144.600055 123.440246,144.37142 122.779851,144.081274 C122.120622,143.790547 121.537166,143.453978 121.030066,143.072146 C120.52355,142.689734 120.163334,142.28527 119.948254,141.857595 C119.948254,141.49085 120.163334,141.169949 120.592912,140.894891 C120.961287,141.230299 121.268461,141.49085 121.513851,141.674223 C121.759823,141.857595 121.997635,142.010212 122.227287,142.132653 C122.458105,142.254515 122.704077,142.331693 122.964622,142.361869 C123.225749,142.391464 123.524762,142.407712 123.862246,142.407712 C125.61203,142.407712 127.322762,141.895314 128.996191,140.871679 C130.669619,139.848044 132.25037,138.396734 133.739028,136.516588 C135.228268,134.637022 136.586362,132.359956 137.814475,129.685971 C139.042006,127.011985 140.085931,124.024642 140.945669,120.723942 C140.546401,121.333828 140.055039,122.080084 139.472166,122.964449 C138.88871,123.848234 138.244052,124.725055 137.538193,125.593172 C136.831751,126.461869 136.10316,127.247584 135.351254,127.947996 C134.598765,128.648409 133.869591,129.120766 133.163732,129.365069 C132.67237,129.365069 132.157693,129.280347 131.620867,129.112062 C131.084041,128.942036 130.576942,128.703536 130.101901,128.395982 C129.625693,128.089007 129.203693,127.719942 128.835318,127.288785 C128.466942,126.858208 128.220387,126.36612 128.098566,125.812522 C128.098566,124.926996 128.128876,124.215558 128.19066,123.680529 C128.251862,123.14608 128.35911,122.557664 128.512989,121.915861 C128.789271,120.754697 129.195533,119.440336 129.732942,117.973358 C130.269768,116.50638 130.899271,115.062613 131.620867,113.640898 C132.342464,112.219763 133.141,110.890314 134.015892,109.652551 C134.890785,108.415369 135.803564,107.44512 136.755395,106.741807 C137.000785,106.741807 137.307959,106.764438 137.676334,106.810281 C138.04471,106.856124 138.42824,106.940847 138.827508,107.062708 C139.226193,107.18515 139.610307,107.330223 139.978682,107.498507 C140.347058,107.666792 140.669387,107.887303 140.945669,108.162942 C140.607602,108.468755 139.870851,109.492391 138.735414,111.234427 C137.599395,112.976464 136.340972,115.482745 134.959564,118.75269 C134.805685,119.089259 134.621497,119.577865 134.407,120.219088 C134.19192,120.861471 133.984417,121.534609 133.785075,122.236763 C133.585732,122.940657 133.409122,123.628303 133.255826,124.299701 C133.101365,124.972259 133.025591,125.507288 133.025591,125.904788 C133.025591,126.149091 133.063478,126.333044 133.141,126.454325 C133.217356,126.576186 133.286135,126.668453 133.34792,126.729383 C133.901066,126.637697 134.637235,126.187971 135.558174,125.376723 C136.479113,124.567796 137.521873,123.307401 138.689367,121.59496 C139.426119,120.495307 140.101086,119.402036 140.715434,118.316891 C141.329199,117.232905 141.93597,116.139635 142.53458,115.039401 C143.132608,113.939168 143.754533,112.808759 144.399191,111.647015 C145.043848,110.48585 145.734552,109.293931 146.471304,108.071255 C146.869989,108.071255 147.300149,108.117099 147.761202,108.208785 C148.221088,108.301051 148.666403,108.415369 149.096564,108.552318 C149.525558,108.689847 149.902677,108.843624 150.224423,109.010748 C150.546751,109.179033 150.783398,109.354861 150.938442,109.538234 C149.98661,111.555328 149.096564,113.52658 148.267718,115.452569 C147.438873,117.377398 146.700956,119.34865 146.056881,121.365745" fill="#1D1D1B"></path>
                            <path d="M163.016152,111.005212 C162.187307,111.128234 161.328152,111.463642 160.437522,112.013759 C159.547475,112.564456 158.71047,113.297365 157.928254,114.214226 C157.145456,115.131088 156.431436,116.201146 155.787362,117.423821 C155.142704,118.645916 154.636188,119.960858 154.267229,121.365745 C156.722873,120.14365 158.764094,118.638372 160.392058,116.850493 C162.018856,115.062613 162.893166,113.114573 163.016152,111.005212 M166.193392,109.492971 C166.070406,111.387624 165.733506,113.015343 165.180359,114.374967 C164.628378,115.735172 163.836837,116.927091 162.809232,117.950726 C161.779878,118.974942 160.529616,119.898766 159.056696,120.723942 C157.58261,121.549117 155.863718,122.344117 153.898271,123.107781 C153.898271,123.291734 153.891859,123.48265 153.875539,123.681109 C153.859801,123.88015 153.852807,124.086734 153.852807,124.299701 C153.852807,124.697781 153.883699,125.110369 153.944901,125.537464 C154.006685,125.965719 154.113934,126.363219 154.267229,126.729964 C154.421108,127.096128 154.636188,127.394398 154.911887,127.623613 C155.188169,127.852828 155.54139,127.967146 155.97155,127.967146 C156.800395,127.967146 157.61292,127.783774 158.411456,127.417029 C159.209409,127.050285 159.969475,126.599978 160.691655,126.064949 C161.412086,125.5305 162.087052,124.949628 162.716555,124.322912 C163.346058,123.696777 163.906199,123.124029 164.398144,122.603507 C164.704152,122.878566 164.965279,123.138536 165.180359,123.382839 C163.799533,125.216562 162.286395,126.737507 160.645025,127.943934 C159.001906,129.151522 157.44447,129.92331 155.97155,130.25988 C153.852807,130.014416 152.20211,129.243208 151.020627,127.943934 C149.839144,126.645821 149.24811,125.079033 149.24811,123.245891 C149.24811,121.99304 149.424721,120.716978 149.777359,119.417704 C150.13058,118.119011 150.621942,116.866161 151.251445,115.658573 C151.880365,114.450985 152.616533,113.313613 153.461116,112.243555 C154.306282,111.173496 155.210901,110.242128 156.179052,109.446547 C157.145456,108.652128 158.142751,108.025412 159.171522,107.566982 C160.19971,107.108551 161.220903,106.879916 162.233936,106.879916 C163.645655,107.062708 164.965279,107.933726 166.193392,109.492971" fill="#1D1D1B"></path>
                            <path d="M165.662978,127.555139 C165.816856,126.669033 166.084978,125.499745 166.469091,124.047854 C166.852622,122.596544 167.304931,121.053547 167.827768,119.418285 C168.348856,117.783022 168.902003,116.140215 169.485459,114.489285 C170.068331,112.839515 170.63605,111.357449 171.188613,110.043088 C171.587298,109.096051 171.941102,108.354438 172.248276,107.819409 C172.554285,107.28496 172.892351,106.834073 173.260727,106.466748 C173.690304,106.528259 174.135619,106.635613 174.596088,106.78765 C175.056558,106.940847 175.50129,107.124799 175.93145,107.338347 C176.361028,107.551894 176.745141,107.773566 177.083207,108.002781 C177.420108,108.231416 177.681235,108.454248 177.866006,108.667215 C177.03716,109.645588 176.307403,110.760909 175.678483,112.013759 C175.048981,113.26777 174.412483,114.871697 173.767243,116.827861 C175.424934,115.360303 176.890859,113.955416 178.165019,112.609719 C179.438597,111.265182 180.628823,109.768029 181.733367,108.117099 C181.918138,107.964482 182.239884,107.887883 182.700354,107.887883 C183.130514,107.887883 183.544936,107.957518 183.943622,108.094467 C184.342307,108.231416 184.618588,108.423493 184.772467,108.667796 C184.219903,110.133613 183.943622,111.586084 183.943622,113.022887 C183.943622,114.367423 184.142964,115.375971 184.542815,116.048529 C184.51134,116.231901 184.303837,116.583558 183.92089,117.10292 C183.536776,117.622861 183.114776,118.111467 182.654307,118.569898 C181.825461,118.142223 181.089293,117.554387 180.444052,116.80523 C179.799395,116.056653 179.323771,115.239022 179.016597,114.352336 C177.573986,115.360303 176.345873,116.346799 175.333423,117.309504 C174.32039,118.271628 173.451909,119.341686 172.731478,120.517938 C172.009881,121.69477 171.396116,123.04685 170.889599,124.575339 C170.383083,126.103828 169.899881,127.921883 169.439412,130.030664 C169.16313,129.999909 168.832058,129.900099 168.44911,129.732394 C168.064997,129.564109 167.681467,129.357526 167.297936,129.113803 C166.913823,128.86892 166.568762,128.608949 166.261588,128.334471 C165.954414,128.059412 165.755072,127.800022 165.662978,127.555139" fill="#1D1D1B"></path>
                            <path d="M183.262243,131.061843 C183.999577,130.756609 184.697276,130.312686 185.357671,129.732394 C186.017483,129.151522 186.592779,128.494631 187.084724,127.761142 C187.57492,127.027653 187.966028,126.247741 188.25863,125.423146 C188.549483,124.597391 188.695785,123.788464 188.695785,122.993464 C188.082019,123.08515 187.40647,123.368332 186.670301,123.84185 C185.932967,124.315949 185.242262,124.881153 184.597605,125.537464 C183.95353,126.194934 183.416122,126.875036 182.985961,127.57777 C182.555801,128.281664 182.341304,128.891551 182.341304,129.411493 C182.341304,130.083471 182.647895,130.634168 183.262243,131.061843 M198.45774,110.157985 C198.427431,110.738858 198.327177,111.342361 198.158727,111.968496 C197.989693,112.595212 197.782191,113.159836 197.536801,113.66469 C197.290829,114.168964 197.030285,114.589095 196.754003,114.925084 C196.478304,115.261653 196.217177,115.429938 195.971787,115.429938 C195.633721,115.399763 195.433796,115.169967 195.372594,114.741712 C195.372594,114.650606 195.411064,114.505533 195.488003,114.306493 C195.563776,114.108033 195.648876,113.886361 195.74097,113.641478 C195.833064,113.397755 195.91758,113.153453 195.994519,112.908569 C196.070876,112.664266 196.109345,112.450139 196.109345,112.266186 C196.109345,111.838511 196.009674,111.479891 195.810331,111.189164 C195.610406,110.899018 195.342285,110.753365 195.004801,110.753365 C193.776105,110.753365 192.840594,111.514128 192.195354,113.035073 C191.551279,114.556018 191.228367,116.791303 191.228367,119.741507 C191.228367,120.046161 191.243522,120.228953 191.274414,120.289303 L194.497702,120.289303 C194.528011,120.349653 194.543749,120.471515 194.543749,120.653146 C194.543749,120.927624 194.481964,121.125504 194.359561,121.246785 C193.653119,121.399401 193.093561,121.528807 192.679138,121.635 C192.264715,121.741193 191.949381,121.840423 191.734884,121.931529 C191.519804,122.023215 191.38924,122.121865 191.343776,122.227478 C191.297729,122.334832 191.274414,122.479325 191.274414,122.660956 C191.274414,122.904679 191.281992,123.147241 191.297729,123.390964 C191.312884,123.634686 191.320461,123.938759 191.320461,124.303182 C191.320461,126.858208 190.62218,128.913022 189.225033,130.469365 C187.82847,132.025128 185.88692,132.925741 183.400384,133.171204 C182.970224,133.139869 182.525492,133.017427 182.065022,132.80388 C181.604552,132.589752 181.167398,132.314693 180.752975,131.978704 C180.33797,131.642135 179.977171,131.267847 179.67058,130.855839 C179.363989,130.443252 179.148326,130.02254 179.025923,129.595445 C179.025923,128.424416 179.271312,127.308515 179.762674,126.24542 C180.253453,125.183485 180.920843,124.244573 181.766008,123.428102 C182.610008,122.611051 183.607887,121.949518 184.758478,121.440602 C185.910235,120.932847 187.160497,120.678099 188.511597,120.678099 C188.511597,119.911533 188.434657,119.158894 188.281362,118.423084 C188.128066,117.686693 187.966028,116.972354 187.79816,116.281226 C187.629127,115.591839 187.467671,114.91638 187.314376,114.255427 C187.160497,113.595635 187.084724,112.942807 187.084724,112.298682 C187.084724,111.470026 187.252591,110.649493 187.59124,109.835923 C187.928141,109.021774 188.374039,108.270296 188.926602,107.579748 C189.478583,106.889201 190.12324,106.299044 190.859992,105.806956 C191.597326,105.316029 192.363804,104.978299 193.16234,104.793766 C193.499823,104.886033 193.952715,105.153547 194.520434,105.59631 C195.088735,106.039653 195.648876,106.535223 196.201439,107.08592 C196.754003,107.636617 197.244782,108.194277 197.675525,108.758321 C198.104519,109.324686 198.365646,109.791241 198.45774,110.157405" fill="#1D1D1B"></path>
                            <path d="M46.5225856,81.7648796 C46.5225856,79.6236022 46.7761354,77.5200438 47.2826519,75.4542044 C47.7891685,73.388365 48.502605,71.4298796 49.4241271,69.5787482 C50.3450663,67.7281971 51.4414503,66.0296825 52.7161934,64.4837847 C53.9897707,62.9390474 55.3869171,61.5997336 56.9064669,60.4675839 C58.4260166,59.3360146 60.0446547,58.456292 61.7641298,57.8284161 C63.483605,57.2011204 65.2479613,56.8877628 67.0595304,56.8877628 C69.1776906,56.8877628 70.8278039,57.3311058 72.0098702,58.2166314 C73.1913536,59.1038978 73.7829696,60.3416606 73.7829696,61.9305 C73.7829696,62.5421277 73.6978702,63.1682628 73.5294199,63.8100657 C73.3603867,64.4518686 73.1149972,65.0861277 72.7926685,65.7122628 C72.4703398,66.3389781 72.0938039,66.943062 71.6648094,67.523354 C71.2340663,68.103646 70.758442,68.6085 70.2373536,69.0355949 C69.4382348,68.9143139 68.7475304,68.5545328 68.1652403,67.958573 C67.5812017,67.3626131 67.212826,66.6680036 67.0595304,65.8730036 C68.1337652,64.9868978 68.9859254,64.0619124 69.6154282,63.099208 C70.2443481,62.1365036 70.5590994,61.2585219 70.5590994,60.4635219 C70.5590994,59.1189854 69.7145166,58.4458467 68.0270994,58.4458467 C67.3206575,58.4458467 66.5914834,58.5915 65.8395773,58.881646 C65.0870884,59.1723723 64.3270221,59.5774161 63.5599613,60.0967774 C62.7923177,60.616719 62.047989,61.242854 61.3269751,61.9757628 C60.6053785,62.7098321 59.937989,63.5199197 59.3242238,64.4054453 C55.057011,70.5188212 52.9231133,76.7685657 52.9231133,83.1552591 C52.9231133,85.4178175 53.2757514,87.2358723 53.9827762,88.6111642 C54.6886354,89.9858759 55.6241464,90.7959635 56.791058,91.0402664 C58.1106823,90.7344526 59.7846934,89.8947701 61.8107597,88.5194781 C63.8362431,87.1441861 66.0464972,85.3557263 68.4409392,83.1552591 C68.7475304,83.4616533 68.9317182,83.7825547 68.9940856,84.1185438 C68.1028729,85.2744854 67.1819337,86.3851642 66.231268,87.45 C65.2794365,88.5148358 64.3351823,89.4885657 63.3990884,90.3706095 C62.4624116,91.2526533 61.5414724,92.0285036 60.6362707,92.6981606 C59.7304862,93.3660766 58.8940635,93.8842774 58.1264199,94.2498613 C54.3196768,94.2498613 51.4344558,93.1937299 49.470174,91.083208 C47.5053094,88.9709453 46.5225856,85.8652226 46.5225856,81.7648796" fill="#1D1D1B"></path>
                            <path d="M78.1428591,77.8838869 C77.620605,78.5872007 77.129826,79.350865 76.6693564,80.1760401 C76.2088867,81.0012153 75.8096188,81.8345146 75.4721354,82.6747774 C75.1340691,83.5150401 74.8735249,84.3251277 74.689337,85.1038796 C74.5051492,85.8832117 74.4136381,86.5789818 74.4136381,87.1900292 C74.4136381,87.9235182 74.5354586,88.6268321 74.7814309,89.2988102 C75.0268204,89.9713686 75.3031022,90.3532007 75.6102762,90.4448869 C76.9916851,90.1396533 78.2576851,89.5669051 79.409442,88.726062 C80.5600331,87.885219 81.5573287,86.8389526 82.4024945,85.5849416 C83.2464945,84.3326715 83.9063066,82.9115365 84.3819309,81.3221168 C84.8581381,79.7338577 85.0959503,78.0370839 85.0959503,76.2335365 C85.0959503,75.4391168 85.0499033,74.8124015 84.9578094,74.3539708 C84.8657155,73.8955401 84.711837,73.4986204 84.4973398,73.1620511 C83.1462403,73.5595511 81.9420249,74.201354 80.8823619,75.0874599 C79.8238646,75.974146 78.9099199,76.9060949 78.1428591,77.8838869 M75.7944641,92.3244526 C74.0446796,92.1410803 72.6475331,91.3768358 71.6041906,90.0322993 C70.5602652,88.6877628 70.0385939,86.9764818 70.0385939,84.8978759 C70.0385939,83.675781 70.2227818,82.4072628 70.5911575,81.0929015 C70.9595331,79.7791204 71.4812044,78.5024781 72.1567541,77.2652956 C72.831721,76.0275328 73.6302569,74.8582445 74.5511961,73.7580109 C75.4721354,72.6577774 76.4694309,71.7107409 77.5442486,70.9157409 C79.2322486,69.6628905 80.8135829,69.0361752 82.2870856,69.0361752 C83.2692265,69.5561168 84.2362127,70.6406825 85.1880442,72.2910328 C85.3413398,72.2910328 85.4794807,72.2840693 85.6024669,72.2684015 C85.7248702,72.2533139 85.863011,72.2451898 86.0168895,72.2451898 C87.6436878,72.2451898 88.4573785,73.6819927 88.4573785,76.554438 C88.4573785,78.4798467 88.1420442,80.3066058 87.5131243,82.0323942 C86.8836215,83.7593431 86.0087293,85.3261314 84.8884475,86.7315985 C83.7675829,88.137646 82.432221,89.3214416 80.8823619,90.284146 C79.3319199,91.2468504 77.6363425,91.9269526 75.7944641,92.3244526" fill="#1D1D1B"></path>
                            <path d="M96.6391657,68.4860584 C97.4371188,68.7309416 98.1890249,69.2729343 98.8954669,70.1131971 C99.601326,70.9540401 100.12358,71.8784453 100.461646,72.8869927 C100.12358,73.7121679 99.601326,74.7056277 98.8954669,75.866792 C98.1890249,77.0285365 97.4831657,78.2129124 96.7773066,79.4193394 C96.0708646,80.626927 95.4343674,81.7730036 94.8666492,82.8575693 C94.2977652,83.9427153 93.968442,84.8369453 93.8769309,85.5396788 C94.3677099,85.0203175 94.9126961,84.4168139 95.5107238,83.7285876 C96.1099171,83.0415219 96.6927901,82.3532956 97.2605083,81.6656496 C97.8288094,80.9780036 98.358058,80.3524489 98.8494199,79.7860839 C99.3401989,79.2214599 99.7243122,78.8007482 100.001177,78.5256898 C100.58405,77.9146423 101.274171,77.2037847 102.072707,76.3936971 C102.87066,75.5841898 103.707666,74.8205255 104.582558,74.1015438 C105.45745,73.3837226 106.339337,72.7720949 107.229967,72.2684015 C108.120014,71.7635474 108.933704,71.5117007 109.670456,71.5117007 C110.468409,71.5117007 111.135798,71.7797956 111.67379,72.3142445 C112.210616,72.8492737 112.632616,73.4069343 112.93979,73.9872263 C112.93979,74.0487372 112.824964,74.1322993 112.594729,74.2396533 C112.364494,74.3470073 112.034006,74.6446971 111.604428,75.1333029 C111.174268,75.6834197 110.690483,76.4401204 110.15424,77.4022445 C109.616831,78.3649489 109.094577,79.4042518 108.588644,80.519573 C108.082127,81.6360547 107.659544,82.7740073 107.322061,83.9351715 C106.983994,85.0969161 106.815544,86.1513066 106.815544,87.0983431 C106.815544,87.8625876 106.915215,88.3517737 107.115141,88.5653212 C107.313901,88.7794489 107.598343,88.8862226 107.966718,88.8862226 C108.304202,88.8862226 108.657423,88.8102044 109.025798,88.656427 C109.394174,88.5043905 109.68561,88.427792 109.900691,88.427792 C110.023094,88.4893029 110.123348,88.618708 110.200287,88.8177482 C110.276061,89.016208 110.315113,89.1920365 110.315113,89.3446533 C110.069141,89.558781 109.777704,89.7729088 109.440221,89.9858759 C109.102155,90.2000036 108.749517,90.3984635 108.381724,90.5824161 C108.012765,90.7657883 107.651967,90.9184051 107.298746,91.0408467 C106.946108,91.162708 106.631356,91.224219 106.355075,91.224219 C105.464445,91.224219 104.735854,91.0936533 104.168135,90.8342628 C103.599251,90.5748723 103.155102,90.2313394 102.832773,89.8030839 C102.509862,89.3754088 102.286622,88.8630109 102.164801,88.2670511 C102.041815,87.6710912 101.980613,87.0374124 101.980613,86.364854 C101.980613,85.9975292 102.010923,85.5849416 102.072707,85.1265109 C102.133909,84.6680803 102.256895,84.1266679 102.441083,83.4999526 C102.625854,82.8732372 102.885815,82.1240803 103.223881,81.253062 C103.561365,80.3820438 103.990942,79.3357774 104.513196,78.1131022 C104.451412,78.1131022 104.036989,78.3272299 103.269928,78.7549051 C102.502285,79.1831606 101.673439,79.8400511 100.783392,80.7255766 C99.3401989,82.1008686 98.0438895,83.4616533 96.8927155,84.8061898 C95.7415414,86.1513066 94.5670525,87.6484599 93.3704144,89.2988102 C92.6942818,90.246427 92.1038315,91.0478102 91.5973149,91.705281 C91.0902155,92.3621715 90.6530608,92.7979708 90.285268,93.0120985 C89.6400276,92.6447737 89.1638204,92.1329562 88.8572293,91.476646 C88.5500552,90.8185949 88.3204033,90.1396533 88.1665249,89.4363394 C88.1665249,88.8560474 88.2504586,88.1219781 88.4194917,87.2358723 C88.587942,86.3497664 88.8187597,85.3638504 89.110779,84.2787044 C89.4022155,83.1941387 89.7624309,82.0550255 90.1925912,80.8636861 C90.6221685,79.6717664 91.0977928,78.4798467 91.6206298,77.287927 C92.7869586,74.598854 93.853616,72.490073 94.8206022,70.9615839 C95.7875884,69.4336752 96.3931934,68.6085 96.6391657,68.4860584" fill="#1D1D1B"></path>
                            <path d="M113.654975,93.3097883 C114.392309,93.0045547 115.090008,92.5606314 115.750403,91.9803394 C116.410215,91.3994672 116.985511,90.7425766 117.477456,90.0096679 C117.967652,89.2761788 118.35876,88.4962664 118.651362,87.6710912 C118.942215,86.8459161 119.088517,86.0369891 119.088517,85.2419891 C118.474751,85.3330949 117.799202,85.6162774 117.063033,86.0897956 C116.325699,86.5638942 115.634994,87.1290985 114.990337,87.7854088 C114.346262,88.4434599 113.808854,89.1229818 113.378693,89.8257153 C112.948533,90.5296095 112.734036,91.1394964 112.734036,91.659438 C112.734036,92.3314161 113.040627,92.8821131 113.654975,93.3097883 M128.850472,72.4059307 C128.820163,72.9868029 128.719909,73.5903066 128.551459,74.2164416 C128.382425,74.8431569 128.174923,75.4083613 127.929533,75.912635 C127.683561,76.4169088 127.423017,76.8376204 127.146735,77.1730292 C126.871036,77.5101788 126.609909,77.6778832 126.364519,77.6778832 C126.026453,77.647708 125.826528,77.4184927 125.765326,76.9896569 C125.765326,76.8985511 125.803796,76.7534781 125.880735,76.554438 C125.956508,76.3559781 126.041608,76.1348869 126.133702,75.8894234 C126.225796,75.6457007 126.310312,75.4013978 126.387251,75.1565146 C126.463608,74.9122117 126.502077,74.6980839 126.502077,74.5147117 C126.502077,74.0870365 126.402406,73.7278358 126.203064,73.4371095 C126.003138,73.1469635 125.735017,73.0013102 125.397533,73.0013102 C124.168837,73.0013102 123.233326,73.762073 122.588086,75.2830182 C121.944011,76.8039635 121.621099,79.0392482 121.621099,81.9894526 C121.621099,82.2941058 121.636254,82.4768978 121.667146,82.5372482 L124.890434,82.5372482 C124.920743,82.5975985 124.936481,82.7194599 124.936481,82.9010912 C124.936481,83.1755693 124.874696,83.3734489 124.752293,83.4947299 C124.045851,83.6473467 123.486293,83.7767518 123.07187,83.8829453 C122.657448,83.9891387 122.342113,84.0883686 122.127616,84.1794745 C121.912536,84.2711606 121.781972,84.3698102 121.736508,84.4754234 C121.690461,84.5827774 121.667146,84.7272701 121.667146,84.9089015 C121.667146,85.1526241 121.674724,85.3951861 121.690461,85.6389088 C121.705616,85.8826314 121.713193,86.1867044 121.713193,86.5511277 C121.713193,89.1061533 121.014912,91.1609672 119.617765,92.7173102 C118.221202,94.273073 116.279652,95.1736861 113.793116,95.4191496 C113.362956,95.3878139 112.918224,95.2653723 112.457754,95.0518248 C111.997285,94.8376971 111.56013,94.5626387 111.145707,94.2266496 C110.730702,93.8900803 110.369903,93.515792 110.063312,93.1037847 C109.756721,92.6911971 109.541058,92.2704854 109.418655,91.8433905 C109.418655,90.6723613 109.664044,89.5564599 110.155406,88.493365 C110.646185,87.4314307 111.313575,86.4925182 112.15874,85.6760474 C113.00274,84.8589964 114.000619,84.1974635 115.15121,83.6885474 C116.302967,83.180792 117.553229,82.9260438 118.904329,82.9260438 C118.904329,82.1594781 118.82739,81.4068394 118.674094,80.6710292 C118.520798,79.9346387 118.35876,79.2202993 118.190892,78.5297518 C118.021859,77.8397847 117.860403,77.1643248 117.707108,76.5039526 C117.553229,75.8435803 117.477456,75.1913321 117.477456,74.5466277 C117.477456,73.7185511 117.645323,72.8980182 117.983972,72.0838686 C118.320873,71.2702993 118.766771,70.5182409 119.319334,69.8276934 C119.871315,69.137146 120.515972,68.5469891 121.252724,68.0554818 C121.990058,67.5639745 122.756536,67.2268248 123.555072,67.0417117 C123.892555,67.1339781 124.345448,67.4014927 124.913166,67.8442555 C125.481467,68.2875985 126.041608,68.7843285 126.594171,69.3344453 C127.146735,69.884562 127.637514,70.4422226 128.068257,71.007427 C128.497251,71.5732117 128.758378,72.0391861 128.850472,72.4059307" fill="#1D1D1B"></path>
                            <path d="M127.712704,82.6515657 C127.712704,80.9095292 128.073503,79.2214599 128.794517,77.5861971 C129.516113,75.9515146 130.467945,74.4996241 131.650011,73.2311058 C132.830912,71.9631679 134.182594,70.9389526 135.702144,70.1596204 C137.22111,69.3802883 138.794285,68.9903321 140.422249,68.9903321 C142.017572,68.9903321 143.245685,69.3884124 144.105423,70.1822518 C144.964577,70.9772518 145.394738,72.1076606 145.394738,73.5746387 C145.394738,74.2779526 145.295066,74.9580547 145.095724,75.6149453 C144.895215,76.2724161 144.635254,76.8608321 144.312343,77.3801934 C143.990597,77.900135 143.614061,78.3196861 143.184483,78.6405876 C142.754323,78.9614891 142.324746,79.1216496 141.895169,79.1216496 C141.526793,79.1216496 141.15084,79.0073321 140.766727,78.7781168 C140.382613,78.5489015 140.068445,78.2512117 139.823055,77.8838869 C141.879431,76.0199891 142.908202,74.3237956 142.908202,72.7953066 C142.908202,71.9092007 142.554981,71.4658577 141.849122,71.4658577 C141.234773,71.4658577 140.467713,71.7571642 139.547356,72.3368759 C138.626417,72.9183285 137.735204,73.6819927 136.876633,74.6290292 C135.555843,76.0960073 134.550387,77.7237263 133.860265,79.5116058 C133.168978,81.2994854 132.8245,83.1715073 132.8245,85.1270912 C132.8245,87.6026168 133.376481,89.0852628 134.481608,89.5738686 C134.942077,89.512938 135.478903,89.3754088 136.093251,89.161281 C136.707599,88.9483139 137.366829,88.6645511 138.073271,88.3134745 C138.77913,87.9618175 139.507721,87.5567737 140.26021,87.0983431 C141.012116,86.6399124 141.74129,86.1513066 142.447732,85.631365 C142.570135,85.7230511 142.677967,85.8605803 142.770061,86.0439526 C142.862155,86.2273248 142.908202,86.3956095 142.908202,86.5482263 C142.385948,87.1900292 141.787337,87.8167445 141.11237,88.427792 C140.43682,89.0394197 139.730961,89.5970803 138.99421,90.101354 C138.257459,90.6056277 137.544022,91.0327226 136.853318,91.3849599 C136.162613,91.7354562 135.555843,91.957708 135.034754,92.0493942 C134.021138,91.957708 133.069307,91.6437701 132.17926,91.1093212 C131.28863,90.5748723 130.513992,89.8796825 129.85418,89.0237518 C129.193785,88.1684015 128.672113,87.1900292 128.288,86.0897956 C127.90447,84.989562 127.712704,83.8434854 127.712704,82.6515657" fill="#1D1D1B"></path>
                            <path d="M154.189124,67.7525693 C154.189124,67.5691971 154.235171,67.2941387 154.327265,66.9273942 C154.173387,66.7747774 154.042823,66.545562 153.935575,66.2397482 C153.827743,65.9345146 153.774702,65.6594562 153.774702,65.414573 C153.774702,65.1395146 153.812588,64.7658066 153.889528,64.291708 C153.965884,63.8181898 154.066138,63.305792 154.189124,62.7556752 C154.311528,62.2055584 154.465406,61.6328102 154.649594,61.0368504 C154.833199,60.4403102 155.01797,59.8983175 155.202157,59.4091314 C155.570533,59.4091314 156.022843,59.5083613 156.560251,59.7074015 C157.097077,59.9064416 157.642646,60.1658321 158.19521,60.4867336 C158.747773,60.807635 159.25429,61.159292 159.714177,61.5405438 C160.175229,61.9235365 160.527867,62.2821569 160.77384,62.618146 C160.435773,62.9547153 159.991041,63.4206898 159.438478,64.0166496 C158.885914,64.6120292 158.348506,65.2387445 157.826834,65.8962153 C157.30458,66.5536861 156.828956,67.1722774 156.399378,67.7525693 C155.969218,68.3334416 155.692936,68.7460292 155.570533,68.9903321 C155.202157,68.9294015 154.879829,68.7686606 154.603547,68.5092701 C154.327265,68.2498796 154.189124,67.9974526 154.189124,67.7525693 M145.394155,87.6484599 C145.394155,87.3734015 145.416887,87.0298686 145.462934,86.617281 C145.508981,86.2041131 145.593497,85.6545766 145.716483,84.9663504 C145.838887,84.2787044 145.99976,83.4465657 146.199685,82.4676131 C146.39961,81.4904015 146.652577,80.3135693 146.959751,78.9382774 C147.020953,78.6330438 147.158511,78.1438577 147.374174,77.4712993 C147.588671,76.7993212 147.87253,76.0890438 148.226334,75.3398869 C148.57839,74.5913102 149.00855,73.865365 149.515066,73.1620511 C150.022166,72.4593175 150.627771,71.9399562 151.334213,71.6033869 C151.855884,71.7258285 152.546588,72.0391861 153.406326,72.5428796 C154.265481,73.0477336 155.002232,73.7429234 155.61658,74.6290292 C154.909555,75.4240292 154.319688,76.2184489 153.843481,77.0128686 C153.367273,77.8078686 152.938279,78.6330438 152.554166,79.4883942 C152.170052,80.3443248 151.817997,81.2304307 151.495669,82.147292 C151.172757,83.0641533 150.811959,84.0268577 150.412691,85.0354051 C150.074624,85.8913358 149.768616,86.7698978 149.492334,87.6710912 C149.216052,88.5734453 149.062174,89.3603212 149.031865,90.0322993 C149.031865,90.5824161 149.024287,90.9723723 149.00855,91.2010073 C148.992812,91.4308029 148.908296,91.5451204 148.755583,91.5451204 C148.632597,91.5451204 148.387207,91.4685219 148.018831,91.3153248 C147.650456,91.162708 147.274503,90.9265292 146.890972,90.6056277 C146.506276,90.284146 146.161215,89.8796825 145.854624,89.3904964 C145.54745,88.9018905 145.394155,88.3210182 145.394155,87.6484599" fill="#1D1D1B"></path>
                            <path d="M162.29339,77.8838869 C161.771135,78.5872007 161.280939,79.350865 160.82047,80.1760401 C160.36,81.0012153 159.960149,81.8345146 159.622666,82.6747774 C159.284599,83.5150401 159.024638,84.3251277 158.839867,85.1038796 C158.656262,85.8832117 158.564169,86.5789818 158.564169,87.1900292 C158.564169,87.9235182 158.686572,88.6268321 158.931961,89.2988102 C159.177351,89.9713686 159.453633,90.3532007 159.760807,90.4448869 C161.142215,90.1396533 162.408798,89.5669051 163.559972,88.726062 C164.710564,87.885219 165.707859,86.8389526 166.553025,85.5849416 C167.397025,84.3326715 168.056837,82.9115365 168.533044,81.3221168 C169.008669,79.7338577 169.247064,78.0370839 169.247064,76.2335365 C169.247064,75.4391168 169.201017,74.8124015 169.10834,74.3539708 C169.016246,73.8955401 168.86295,73.4986204 168.64787,73.1620511 C167.296771,73.5595511 166.092555,74.201354 165.033475,75.0874599 C163.974395,75.974146 163.06045,76.9060949 162.29339,77.8838869 M159.945577,92.3244526 C158.195793,92.1410803 156.798064,91.3768358 155.754721,90.0322993 C154.710796,88.6877628 154.189707,86.9764818 154.189707,84.8978759 C154.189707,83.675781 154.373312,82.4072628 154.741688,81.0929015 C155.110646,79.7791204 155.631735,78.5024781 156.307285,77.2652956 C156.982251,76.0275328 157.78137,74.8582445 158.701727,73.7580109 C159.622666,72.6577774 160.619961,71.7107409 161.695362,70.9157409 C163.382779,69.6628905 164.964113,69.0361752 166.437616,69.0361752 C167.419757,69.5561168 168.386743,70.6406825 169.338575,72.2910328 C169.492453,72.2910328 169.630011,72.2840693 169.752997,72.2684015 C169.875401,72.2533139 170.013541,72.2451898 170.168003,72.2451898 C171.794218,72.2451898 172.607909,73.6819927 172.607909,76.554438 C172.607909,78.4798467 172.292575,80.3066058 171.664238,82.0323942 C171.034735,83.7593431 170.159843,85.3261314 169.039561,86.7315985 C167.918113,88.137646 166.582751,89.3214416 165.033475,90.284146 C163.483033,91.2468504 161.786873,91.9269526 159.945577,92.3244526" fill="#1D1D1B"></path>
                            <path d="M185.749945,89.7113978 C185.166489,89.222792 184.774798,88.6111642 184.575456,87.8776752 C184.37553,87.1441861 184.276442,86.5180511 184.276442,85.9981095 C184.276442,85.3563066 184.352798,84.8061898 184.506094,84.3477591 C184.383108,84.3477591 184.107409,84.592062 183.677249,85.0795073 C183.247088,85.5669526 182.779624,86.1455036 182.273108,86.8163212 C181.766591,87.4865584 181.267652,88.1411277 180.776873,88.7806095 C180.285511,89.4206715 179.916552,89.8924489 179.671163,90.1971022 C179.272478,90.6236168 178.895942,90.9584453 178.543304,91.2027482 C178.190083,91.4453102 177.905641,91.5834197 177.691727,91.6135949 C177.200365,91.6135949 176.685688,91.5288723 176.148862,91.3605876 C175.611453,91.190562 175.104936,90.952062 174.629312,90.6445073 C174.153105,90.3375328 173.738682,89.9684672 173.386044,89.5373102 C173.032823,89.1067336 172.794428,88.614646 172.672025,88.0610474 C172.672025,87.2062774 172.695923,86.5023832 172.74197,85.9522664 C172.787434,85.4021496 172.887105,84.8061898 173.040401,84.1643869 C173.317265,83.0032226 173.723528,81.6888613 174.260936,80.2218832 C174.797762,78.7549051 175.419105,77.3111387 176.125547,75.8900036 C176.831406,74.4688686 177.622365,73.1394197 178.49784,71.9016569 C179.372732,70.6638942 180.300083,69.693646 181.28339,68.9903321 C181.559671,68.9903321 181.881417,69.0135438 182.250376,69.0593869 C182.618751,69.1052299 182.994122,69.1893723 183.378235,69.3112336 C183.761765,69.4336752 184.130141,69.5793285 184.483362,69.7470328 C184.836,69.9153175 185.135014,70.1364088 185.380986,70.4114672 C185.105287,70.7178613 184.406423,71.7409161 183.286141,73.4829526 C182.165276,75.2249891 180.915014,77.7312701 179.533605,81.0012153 C179.379144,81.3377847 179.195539,81.8263905 178.981041,82.4681934 C178.765961,83.1099964 178.550298,83.7825547 178.335801,84.4852883 C178.120721,85.1886022 177.944693,85.8768285 177.806552,86.5482263 C177.668412,87.2207847 177.599633,87.7558139 177.599633,88.1527336 C177.599633,88.3976168 177.637519,88.5809891 177.714459,88.7028504 C177.790815,88.825292 177.860177,88.9169781 177.921378,88.9779088 C178.381848,88.7945365 178.964721,88.2902628 179.671163,87.4650876 C180.377022,86.6399124 181.359746,85.3719745 182.618751,83.6601131 C182.92476,83.232438 183.286141,82.7432518 183.700564,82.193135 C184.114986,81.6430182 184.536986,81.0551825 184.966564,80.4284672 C185.396724,79.8023321 185.802986,79.1524051 186.187099,78.480427 C186.57063,77.8078686 186.884798,77.1353102 187.131354,76.4627518 C187.253174,76.0960073 187.41463,75.6607883 187.614555,75.1565146 C187.813898,74.6522409 188.059287,74.1247555 188.351307,73.5746387 C188.642743,73.0245219 188.980227,72.4674416 189.36434,71.9016569 C189.74787,71.3364526 190.200762,70.8089672 190.722434,70.319781 C191.121702,70.319781 191.551862,70.3656241 192.011749,70.4573102 C192.472218,70.5495766 192.909956,70.6638942 193.324378,70.8014234 C193.738801,70.9389526 194.099017,71.0921496 194.406773,71.259854 C194.713365,71.4281387 194.943017,71.6033869 195.097478,71.7867591 C194.544914,73.1318759 193.929983,74.4613248 193.255599,75.7751058 C192.58005,77.0900474 191.950547,78.3811971 191.367674,79.6485547 C190.784218,80.9176533 190.292856,82.1786277 189.893588,83.4308978 C189.494903,84.6843285 189.295561,85.9064234 189.295561,87.0983431 C189.295561,87.7407263 189.348602,88.2978066 189.456434,88.7719051 C189.563682,89.2454234 189.678508,89.6429234 189.801494,89.9638248 C189.923898,90.284146 190.039307,90.5522409 190.147138,90.7657883 C190.25497,90.9793358 190.308011,91.162708 190.308011,91.3159051 C190.308011,91.3455 190.277702,91.3919234 190.2165,91.4534343 C190.185025,91.4836095 190.154715,91.4992774 190.124406,91.4992774 C189.909326,91.4992774 189.632461,91.4534343 189.295561,91.3617482 C188.957494,91.2706423 188.581541,91.1394964 188.167119,90.9723723 C187.753279,90.8040876 187.338856,90.6131715 186.923851,90.3990438 C186.509428,90.1854964 186.11832,89.956281 185.749945,89.7113978" fill="#1D1D1B"></path>
                            <path d="M194.990812,93.3097883 C195.728146,93.0045547 196.425845,92.5606314 197.08624,91.9803394 C197.746052,91.3994672 198.321348,90.7425766 198.813293,90.0096679 C199.303489,89.2761788 199.694597,88.4962664 199.987199,87.6710912 C200.278052,86.8459161 200.424354,86.0369891 200.424354,85.2419891 C199.810588,85.3330949 199.135039,85.6162774 198.39887,86.0897956 C197.661536,86.5638942 196.970831,87.1290985 196.326174,87.7854088 C195.682099,88.4434599 195.144691,89.1229818 194.71453,89.8257153 C194.28437,90.5296095 194.069873,91.1394964 194.069873,91.659438 C194.069873,92.3314161 194.376464,92.8821131 194.990812,93.3097883 M210.186309,72.4059307 C210.156,72.9868029 210.055746,73.5903066 209.887296,74.2164416 C209.718262,74.8431569 209.51076,75.4083613 209.26537,75.912635 C209.019398,76.4169088 208.758854,76.8376204 208.482572,77.1730292 C208.206873,77.5101788 207.945746,77.6778832 207.700356,77.6778832 C207.36229,77.647708 207.162365,77.4184927 207.101163,76.9896569 C207.101163,76.8985511 207.139633,76.7534781 207.216572,76.554438 C207.292345,76.3559781 207.377445,76.1348869 207.469539,75.8894234 C207.561633,75.6457007 207.646149,75.4013978 207.723088,75.1565146 C207.799445,74.9122117 207.837914,74.6980839 207.837914,74.5147117 C207.837914,74.0870365 207.738243,73.7278358 207.538901,73.4371095 C207.338975,73.1469635 207.070854,73.0013102 206.73337,73.0013102 C205.504674,73.0013102 204.569163,73.762073 203.923923,75.2830182 C203.279848,76.8039635 202.956936,79.0392482 202.956936,81.9894526 C202.956936,82.2941058 202.972091,82.4768978 203.002983,82.5372482 L206.226271,82.5372482 C206.25658,82.5975985 206.272318,82.7194599 206.272318,82.9010912 C206.272318,83.1755693 206.210533,83.3734489 206.08813,83.4947299 C205.381688,83.6473467 204.82213,83.7767518 204.407707,83.8829453 C203.993285,83.9891387 203.67795,84.0883686 203.463453,84.1794745 C203.248373,84.2711606 203.117809,84.3698102 203.072345,84.4754234 C203.026298,84.5827774 203.002983,84.7272701 203.002983,84.9089015 C203.002983,85.1526241 203.010561,85.3951861 203.026298,85.6389088 C203.041453,85.8826314 203.04903,86.1867044 203.04903,86.5511277 C203.04903,89.1061533 202.350749,91.1609672 200.953602,92.7173102 C199.557039,94.273073 197.615489,95.1736861 195.128953,95.4191496 C194.698793,95.3878139 194.254061,95.2653723 193.793591,95.0518248 C193.333122,94.8376971 192.895967,94.5626387 192.481544,94.2266496 C192.066539,93.8900803 191.70574,93.515792 191.399149,93.1037847 C191.092558,92.6911971 190.876895,92.2704854 190.754492,91.8433905 C190.754492,90.6723613 190.999881,89.5564599 191.491243,88.493365 C191.982022,87.4314307 192.649412,86.4925182 193.494577,85.6760474 C194.338577,84.8589964 195.336456,84.1974635 196.487047,83.6885474 C197.638804,83.180792 198.889066,82.9260438 200.240166,82.9260438 C200.240166,82.1594781 200.163227,81.4068394 200.009931,80.6710292 C199.856635,79.9346387 199.694597,79.2202993 199.526729,78.5297518 C199.357696,77.8397847 199.19624,77.1643248 199.042945,76.5039526 C198.889066,75.8435803 198.813293,75.1913321 198.813293,74.5466277 C198.813293,73.7185511 198.98116,72.8980182 199.319809,72.0838686 C199.65671,71.2702993 200.102608,70.5182409 200.655171,69.8276934 C201.207152,69.137146 201.851809,68.5469891 202.588561,68.0554818 C203.325895,67.5639745 204.092373,67.2268248 204.890909,67.0417117 C205.228392,67.1339781 205.681285,67.4014927 206.249003,67.8442555 C206.817304,68.2875985 207.377445,68.7843285 207.930008,69.3344453 C208.482572,69.884562 208.973351,70.4422226 209.404094,71.007427 C209.833088,71.5732117 210.094215,72.0391861 210.186309,72.4059307" fill="#1D1D1B"></path>
                        </g>
                    </g>
                </g>
            </g>
        </g>
    </g>
</svg>